<svg width="87" height="89" viewBox="0 0 87 89" fill="none" xmlns="http://www.w3.org/2000/svg">
<rect width="87" height="89" rx="15" fill="#AEBFB5"/>
<rect x="0.5" y="0.5" width="86" height="88" rx="14.5" stroke="black" stroke-opacity="0.06"/>
<path d="M25.54 42H24.9775L28.1266 33.2727H28.7402L31.8894 42H31.3269L28.4547 33.9588H28.4121L25.54 42ZM26.3368 38.7145H30.53V39.2088H26.3368V38.7145ZM33.8539 33.2727V42H33.334V33.2727H33.8539ZM36.0059 42V35.4545H36.513V36.4432H36.5641C36.6891 36.1136 36.905 35.8523 37.2118 35.6591C37.5186 35.4659 37.888 35.3693 38.3198 35.3693C38.7942 35.3693 39.1763 35.483 39.4661 35.7102C39.7587 35.9375 39.9689 36.2457 40.0968 36.6349H40.1436C40.2715 36.2514 40.5002 35.9446 40.8297 35.7145C41.1621 35.4844 41.5712 35.3693 42.057 35.3693C42.6905 35.3693 43.1735 35.5696 43.5059 35.9702C43.8411 36.3679 44.0087 36.9134 44.0087 37.6065V42H43.4888V37.6065C43.4888 37.0611 43.3581 36.6321 43.0968 36.3196C42.8354 36.0071 42.4519 35.8509 41.9462 35.8509C41.4064 35.8509 40.9917 36.0199 40.7019 36.358C40.4121 36.696 40.2672 37.1264 40.2672 37.6491V42H39.7473V37.5724C39.7473 37.0639 39.6195 36.6506 39.3638 36.3324C39.1081 36.0114 38.7246 35.8509 38.2132 35.8509C37.8667 35.8509 37.5669 35.9304 37.3141 36.0895C37.0641 36.2486 36.8695 36.4673 36.7303 36.7457C36.5939 37.0241 36.5257 37.3437 36.5257 37.7045V42H36.0059ZM48.5993 42.1364C48.0595 42.1364 47.5794 41.9915 47.1589 41.7017C46.7385 41.4091 46.4075 41.0071 46.166 40.4957C45.9245 39.9844 45.8038 39.402 45.8038 38.7486C45.8038 38.0923 45.9245 37.5099 46.166 37.0014C46.4075 36.4901 46.7385 36.0881 47.1589 35.7955C47.5794 35.5028 48.0595 35.3565 48.5993 35.3565C49.139 35.3565 49.6191 35.5028 50.0396 35.7955C50.46 36.0881 50.791 36.4901 51.0325 37.0014C51.274 37.5128 51.3947 38.0952 51.3947 38.7486C51.3947 39.402 51.274 39.9844 51.0325 40.4957C50.791 41.0071 50.46 41.4091 50.0396 41.7017C49.6191 41.9915 49.139 42.1364 48.5993 42.1364ZM48.5993 41.6548C49.0566 41.6548 49.4558 41.5256 49.7967 41.267C50.1404 41.0085 50.4061 40.6591 50.5936 40.2188C50.7839 39.7784 50.8791 39.2884 50.8791 38.7486C50.8791 38.2088 50.7839 37.7202 50.5936 37.2827C50.4032 36.8423 50.1376 36.4929 49.7967 36.2344C49.4558 35.973 49.0566 35.8423 48.5993 35.8423C48.1419 35.8423 47.7427 35.973 47.4018 36.2344C47.0609 36.4929 46.7953 36.8423 46.6049 37.2827C46.4146 37.7202 46.3194 38.2088 46.3194 38.7486C46.3194 39.2884 46.4132 39.7784 46.6007 40.2188C46.791 40.6591 47.0566 41.0085 47.3975 41.267C47.7413 41.5256 48.1419 41.6548 48.5993 41.6548ZM57.3446 36.8651L56.8631 36.9929C56.7864 36.7543 56.677 36.5483 56.535 36.375C56.3929 36.2017 56.214 36.0682 55.998 35.9744C55.785 35.8778 55.5293 35.8295 55.231 35.8295C54.7509 35.8295 54.3574 35.9489 54.0506 36.1875C53.7466 36.4261 53.5946 36.7372 53.5946 37.1207C53.5946 37.4332 53.6983 37.6918 53.9057 37.8963C54.1131 38.098 54.4299 38.2514 54.856 38.3565L55.8617 38.608C56.3787 38.7358 56.7679 38.9432 57.0293 39.2301C57.2907 39.5142 57.4213 39.8679 57.4213 40.2912C57.4213 40.652 57.3233 40.9716 57.1273 41.25C56.9313 41.5284 56.66 41.7457 56.3134 41.902C55.9696 42.0582 55.5691 42.1364 55.1117 42.1364C54.5009 42.1364 53.9995 41.9943 53.6074 41.7102C53.2154 41.4233 52.964 41.0128 52.8532 40.4787L53.3517 40.3509C53.4455 40.777 53.6401 41.1023 53.9355 41.3267C54.2338 41.5483 54.6245 41.6591 55.1074 41.6591C55.6415 41.6591 56.0719 41.5327 56.3986 41.2798C56.7282 41.027 56.8929 40.7031 56.8929 40.3082C56.8929 40.0071 56.7963 39.7528 56.6032 39.5455C56.41 39.3381 56.1174 39.1861 55.7253 39.0895L54.6813 38.8338C54.1472 38.7031 53.7466 38.4943 53.4796 38.2074C53.2125 37.9176 53.079 37.5611 53.079 37.1378C53.079 36.7855 53.1713 36.4759 53.356 36.2088C53.5407 35.9418 53.7949 35.733 54.1188 35.5824C54.4426 35.4318 54.8134 35.3565 55.231 35.3565C55.785 35.3565 56.2367 35.4872 56.5861 35.7486C56.9355 36.0099 57.1884 36.3821 57.3446 36.8651ZM61.5346 35.4545V35.919H58.6752V35.4545H61.5346ZM59.6426 33.8864H60.1582V40.4531C60.1582 40.7202 60.2093 40.9389 60.3116 41.1094C60.4167 41.277 60.5531 41.402 60.7207 41.4844C60.8912 41.5639 61.073 41.6037 61.2662 41.6037C61.3599 41.6037 61.4409 41.5966 61.5091 41.5824C61.5801 41.5682 61.6468 41.5497 61.7093 41.527L61.8372 42C61.7576 42.0284 61.6696 42.0526 61.573 42.0724C61.4764 42.0952 61.3627 42.1065 61.2321 42.1065C60.9593 42.1065 60.7008 42.0455 60.4565 41.9233C60.215 41.8011 60.019 41.6236 59.8684 41.3906C59.7179 41.1577 59.6426 40.8764 59.6426 40.5469V33.8864ZM30.3329 57H29.7704L32.9196 48.2727H33.5332L36.6824 57H36.1199L33.2477 48.9588H33.2051L30.3329 57ZM31.1298 53.7145H35.323V54.2088H31.1298V53.7145ZM42.5375 59.4545V55.5724H42.4863C42.3869 55.8565 42.242 56.1179 42.0517 56.3565C41.8613 56.5923 41.627 56.7812 41.3485 56.9233C41.0701 57.0653 40.7449 57.1364 40.3727 57.1364C39.85 57.1364 39.3926 56.9915 39.0005 56.7017C38.6113 56.4091 38.3074 56.0085 38.0886 55.5C37.8727 54.9886 37.7647 54.4034 37.7647 53.7443C37.7647 53.0852 37.8727 52.5014 38.0886 51.9929C38.3045 51.4815 38.6085 51.081 39.0005 50.7912C39.3926 50.5014 39.8514 50.3565 40.377 50.3565C40.7548 50.3565 41.0815 50.429 41.3571 50.5739C41.6326 50.7159 41.8642 50.9048 42.0517 51.1406C42.2392 51.3764 42.3841 51.6349 42.4863 51.9162H42.5502V50.4545H43.0531V59.4545H42.5375ZM40.4196 56.6548C40.8599 56.6548 41.2377 56.5284 41.5531 56.2756C41.8713 56.0199 42.1156 55.6733 42.286 55.2358C42.4565 54.7955 42.5417 54.2969 42.5417 53.7401C42.5417 53.1832 42.4579 52.6875 42.2903 52.2528C42.1227 51.8153 41.8798 51.4716 41.5616 51.2216C41.2434 50.9687 40.8627 50.8423 40.4196 50.8423C39.9679 50.8423 39.5829 50.9702 39.2647 51.2259C38.9466 51.4787 38.7022 51.8239 38.5318 52.2614C38.3642 52.6989 38.2804 53.1918 38.2804 53.7401C38.2804 54.2884 38.3656 54.7827 38.536 55.223C38.7065 55.6634 38.9508 56.0128 39.269 56.2713C39.5872 56.527 39.9707 56.6548 40.4196 56.6548ZM49.41 54.6776V50.4545H49.9299V57H49.41V55.9389H49.3674C49.214 56.277 48.9654 56.5526 48.6216 56.7656C48.2807 56.9787 47.8773 57.0852 47.4114 57.0852C46.9824 57.0852 46.6032 56.9915 46.2736 56.804C45.9441 56.6165 45.6855 56.3509 45.498 56.0071C45.3105 55.6605 45.2168 55.2486 45.2168 54.7713V50.4545H45.7367V54.75C45.7367 55.2955 45.9015 55.7372 46.231 56.0753C46.5634 56.4105 46.9924 56.5781 47.5179 56.5781C47.8588 56.5781 48.1728 56.5014 48.4597 56.348C48.7466 56.1946 48.9767 55.9759 49.15 55.6918C49.3233 55.4048 49.41 55.0668 49.41 54.6776ZM53.8184 57.1406C53.4405 57.1406 53.0939 57.0653 52.7786 56.9148C52.4661 56.7642 52.2147 56.544 52.0243 56.2543C51.8368 55.9645 51.7431 55.6122 51.7431 55.1974C51.7431 54.9247 51.7914 54.6847 51.888 54.4773C51.9846 54.2699 52.1337 54.0909 52.3354 53.9403C52.5371 53.7898 52.7956 53.6662 53.111 53.5696C53.4263 53.4702 53.8027 53.3935 54.2402 53.3395C54.5726 53.2997 54.8695 53.2614 55.1309 53.2244C55.3922 53.1847 55.5968 53.1236 55.7445 53.0412C55.8951 52.9588 55.9703 52.8338 55.9703 52.6662V52.3935C55.9703 51.9162 55.8198 51.5369 55.5186 51.2557C55.2175 50.9744 54.8027 50.8338 54.2743 50.8338C53.8056 50.8338 53.4107 50.9375 53.0897 51.1449C52.7715 51.3494 52.5485 51.6136 52.4206 51.9375L51.9306 51.7543C52.0556 51.4418 52.236 51.1818 52.4718 50.9744C52.7104 50.767 52.9831 50.6122 53.29 50.5099C53.5996 50.4077 53.9235 50.3565 54.2615 50.3565C54.5542 50.3565 54.8326 50.3977 55.0968 50.4801C55.3638 50.5625 55.601 50.6875 55.8084 50.8551C56.0186 51.0227 56.1848 51.2372 56.307 51.4986C56.4292 51.7571 56.4902 52.0668 56.4902 52.4276V57H55.9703V55.8196H55.932C55.8184 56.0639 55.6621 56.2869 55.4632 56.4886C55.2672 56.6875 55.03 56.8466 54.7516 56.9659C54.476 57.0824 54.165 57.1406 53.8184 57.1406ZM53.8695 56.6591C54.2786 56.6591 54.6408 56.5597 54.9561 56.3608C55.2743 56.1591 55.5229 55.8835 55.7019 55.5341C55.8809 55.1847 55.9703 54.7884 55.9703 54.3452V53.3821C55.905 53.4389 55.8098 53.4901 55.6848 53.5355C55.5627 53.5781 55.4235 53.6165 55.2672 53.6506C55.1138 53.6818 54.9519 53.7102 54.7814 53.7358C54.6138 53.7585 54.4505 53.7798 54.2914 53.7997C53.8141 53.8565 53.4249 53.9446 53.1238 54.0639C52.8255 54.1804 52.6067 54.3338 52.4675 54.5241C52.3311 54.7145 52.263 54.9446 52.263 55.2145C52.263 55.6605 52.4164 56.0128 52.7232 56.2713C53.03 56.5298 53.4121 56.6591 53.8695 56.6591Z" fill="black"/>
</svg>
