<svg width="87" height="89" viewBox="0 0 87 89" fill="none" xmlns="http://www.w3.org/2000/svg">
<rect width="87" height="89" rx="15" fill="#D6D9DD"/>
<rect x="0.5" y="0.5" width="86" height="88" rx="14.5" stroke="black" stroke-opacity="0.06"/>
<path d="M30.8132 33.2727V42H30.2933L24.728 34.2401H24.6768V42H24.1442V33.2727H24.6683L30.2337 41.0412H30.2848V33.2727H30.8132ZM33.174 42V35.4545H33.6896V42H33.174ZM33.4339 34.2955C33.3203 34.2955 33.2209 34.2557 33.1357 34.1761C33.0533 34.0966 33.0121 34 33.0121 33.8864C33.0121 33.7727 33.0533 33.6761 33.1357 33.5966C33.218 33.517 33.3175 33.4773 33.4339 33.4773C33.5476 33.4773 33.6456 33.517 33.728 33.5966C33.8132 33.6761 33.8558 33.7727 33.8558 33.8864C33.8558 34 33.8146 34.0966 33.7322 34.1761C33.6499 34.2557 33.5504 34.2955 33.4339 34.2955ZM35.8672 42V35.4545H36.3743V36.4432H36.4254C36.5504 36.1136 36.7663 35.8523 37.0732 35.6591C37.38 35.4659 37.7493 35.3693 38.1811 35.3693C38.6555 35.3693 39.0376 35.483 39.3274 35.7102C39.62 35.9375 39.8303 36.2457 39.9581 36.6349H40.005C40.1328 36.2514 40.3615 35.9446 40.6911 35.7145C41.0234 35.4844 41.4325 35.3693 41.9183 35.3693C42.5518 35.3693 43.0348 35.5696 43.3672 35.9702C43.7024 36.3679 43.87 36.9134 43.87 37.6065V42H43.3501V37.6065C43.3501 37.0611 43.2195 36.6321 42.9581 36.3196C42.6967 36.0071 42.3132 35.8509 41.8075 35.8509C41.2678 35.8509 40.853 36.0199 40.5632 36.358C40.2734 36.696 40.1286 37.1264 40.1286 37.6491V42H39.6087V37.5724C39.6087 37.0639 39.4808 36.6506 39.2251 36.3324C38.9695 36.0114 38.5859 35.8509 38.0746 35.8509C37.728 35.8509 37.4283 35.9304 37.1754 36.0895C36.9254 36.2486 36.7308 36.4673 36.5916 36.7457C36.4553 37.0241 36.3871 37.3437 36.3871 37.7045V42H35.8672ZM46.2106 42V33.2727H46.7262V36.9162H46.7773C46.8796 36.6349 47.0245 36.3764 47.212 36.1406C47.3995 35.9048 47.6325 35.7159 47.9109 35.5739C48.1893 35.429 48.5146 35.3565 48.8867 35.3565C49.4123 35.3565 49.8711 35.5028 50.2631 35.7955C50.6552 36.0852 50.9592 36.4858 51.1751 36.9972C51.391 37.5057 51.4989 38.0881 51.4989 38.7443C51.4989 39.4062 51.391 39.9929 51.1751 40.5043C50.9592 41.0128 50.6566 41.4119 50.2674 41.7017C49.8782 41.9915 49.4194 42.1364 48.891 42.1364C48.5188 42.1364 48.1935 42.0653 47.9151 41.9233C47.6367 41.7784 47.4038 41.5881 47.2163 41.3523C47.0288 41.1136 46.8825 40.8537 46.7773 40.5724H46.7177V42H46.2106ZM46.7219 38.7401C46.7219 39.2969 46.8058 39.7955 46.9734 40.2358C47.1438 40.6733 47.3881 41.0199 47.7063 41.2756C48.0245 41.5284 48.4052 41.6548 48.8484 41.6548C49.2972 41.6548 49.6808 41.527 49.9989 41.2713C50.3171 41.0128 50.56 40.6634 50.7276 40.223C50.8981 39.7827 50.9833 39.2884 50.9833 38.7401C50.9833 38.1918 50.8981 37.6989 50.7276 37.2614C50.56 36.8239 50.3171 36.4787 49.9989 36.2259C49.6808 35.9702 49.2972 35.8423 48.8484 35.8423C48.4052 35.8423 48.0245 35.9687 47.7063 36.2216C47.3881 36.4716 47.1438 36.8153 46.9734 37.2528C46.8058 37.6875 46.7219 38.1832 46.7219 38.7401ZM57.4862 39.6776V35.4545H58.006V42H57.4862V40.9389H57.4435C57.2901 41.277 57.0415 41.5526 56.6978 41.7656C56.3569 41.9787 55.9535 42.0852 55.4876 42.0852C55.0586 42.0852 54.6793 41.9915 54.3498 41.804C54.0202 41.6165 53.7617 41.3509 53.5742 41.0071C53.3867 40.6605 53.293 40.2486 53.293 39.7713V35.4545H53.8129V39.75C53.8129 40.2955 53.9776 40.7372 54.3072 41.0753C54.6396 41.4105 55.0685 41.5781 55.5941 41.5781C55.935 41.5781 56.2489 41.5014 56.5359 41.348C56.8228 41.1946 57.0529 40.9759 57.2262 40.6918C57.3995 40.4048 57.4862 40.0668 57.4862 39.6776ZM64.3192 36.8651L63.8377 36.9929C63.761 36.7543 63.6516 36.5483 63.5096 36.375C63.3675 36.2017 63.1886 36.0682 62.9727 35.9744C62.7596 35.8778 62.5039 35.8295 62.2056 35.8295C61.7255 35.8295 61.332 35.9489 61.0252 36.1875C60.7212 36.4261 60.5692 36.7372 60.5692 37.1207C60.5692 37.4332 60.6729 37.6918 60.8803 37.8963C61.0877 38.098 61.4045 38.2514 61.8306 38.3565L62.8363 38.608C63.3533 38.7358 63.7425 38.9432 64.0039 39.2301C64.2653 39.5142 64.396 39.8679 64.396 40.2912C64.396 40.652 64.2979 40.9716 64.1019 41.25C63.9059 41.5284 63.6346 41.7457 63.288 41.902C62.9442 42.0582 62.5437 42.1364 62.0863 42.1364C61.4755 42.1364 60.9741 41.9943 60.582 41.7102C60.19 41.4233 59.9386 41.0128 59.8278 40.4787L60.3263 40.3509C60.4201 40.777 60.6147 41.1023 60.9102 41.3267C61.2085 41.5483 61.5991 41.6591 62.082 41.6591C62.6161 41.6591 63.0465 41.5327 63.3732 41.2798C63.7028 41.027 63.8675 40.7031 63.8675 40.3082C63.8675 40.0071 63.771 39.7528 63.5778 39.5455C63.3846 39.3381 63.092 39.1861 62.6999 39.0895L61.6559 38.8338C61.1218 38.7031 60.7212 38.4943 60.4542 38.2074C60.1871 37.9176 60.0536 37.5611 60.0536 37.1378C60.0536 36.7855 60.146 36.4759 60.3306 36.2088C60.5153 35.9418 60.7695 35.733 61.0934 35.5824C61.4173 35.4318 61.788 35.3565 62.2056 35.3565C62.7596 35.3565 63.2113 35.4872 63.5607 35.7486C63.9102 36.0099 64.163 36.3821 64.3192 36.8651ZM35.6493 51H35.1039C35.0471 50.7045 34.9405 50.419 34.7843 50.1435C34.628 49.8651 34.4263 49.6151 34.1792 49.3935C33.9348 49.169 33.6507 48.9915 33.3269 48.8608C33.003 48.7301 32.6451 48.6648 32.253 48.6648C31.6792 48.6648 31.1507 48.8182 30.6678 49.125C30.1877 49.429 29.8027 49.8764 29.513 50.4673C29.226 51.0582 29.0826 51.7812 29.0826 52.6364C29.0826 53.4972 29.226 54.223 29.513 54.8139C29.8027 55.4048 30.1877 55.8523 30.6678 56.1562C31.1507 56.4574 31.6792 56.608 32.253 56.608C32.6451 56.608 33.003 56.544 33.3269 56.4162C33.6507 56.2855 33.9348 56.1094 34.1792 55.8878C34.4263 55.6634 34.628 55.4119 34.7843 55.1335C34.9405 54.8551 35.0471 54.5682 35.1039 54.2727H35.6493C35.5868 54.625 35.4661 54.9702 35.2871 55.3082C35.111 55.6463 34.878 55.9531 34.5882 56.2287C34.3013 56.5014 33.9618 56.7187 33.5698 56.8807C33.1806 57.0398 32.7417 57.1193 32.253 57.1193C31.5257 57.1193 30.8851 56.9347 30.3311 56.5653C29.7772 56.1932 29.3425 55.6705 29.0272 54.9972C28.7147 54.3239 28.5584 53.5369 28.5584 52.6364C28.5584 51.7358 28.7147 50.9489 29.0272 50.2756C29.3425 49.6023 29.7772 49.081 30.3311 48.7116C30.8851 48.3395 31.5257 48.1534 32.253 48.1534C32.7417 48.1534 33.1806 48.2344 33.5698 48.3963C33.9618 48.5554 34.3013 48.7713 34.5882 49.044C34.878 49.3139 35.111 49.6179 35.2871 49.956C35.4661 50.294 35.5868 50.642 35.6493 51ZM38.0336 48.2727V57H37.5137V48.2727H38.0336ZM42.6188 57.1364C42.079 57.1364 41.5989 56.9915 41.1784 56.7017C40.758 56.4091 40.427 56.0071 40.1855 55.4957C39.9441 54.9844 39.8233 54.402 39.8233 53.7486C39.8233 53.0923 39.9441 52.5099 40.1855 52.0014C40.427 51.4901 40.758 51.0881 41.1784 50.7955C41.5989 50.5028 42.079 50.3565 42.6188 50.3565C43.1586 50.3565 43.6387 50.5028 44.0591 50.7955C44.4796 51.0881 44.8105 51.4901 45.052 52.0014C45.2935 52.5128 45.4142 53.0952 45.4142 53.7486C45.4142 54.402 45.2935 54.9844 45.052 55.4957C44.8105 56.0071 44.4796 56.4091 44.0591 56.7017C43.6387 56.9915 43.1586 57.1364 42.6188 57.1364ZM42.6188 56.6548C43.0762 56.6548 43.4753 56.5256 43.8162 56.267C44.16 56.0085 44.4256 55.6591 44.6131 55.2188C44.8034 54.7784 44.8986 54.2884 44.8986 53.7486C44.8986 53.2088 44.8034 52.7202 44.6131 52.2827C44.4228 51.8423 44.1571 51.4929 43.8162 51.2344C43.4753 50.973 43.0762 50.8423 42.6188 50.8423C42.1614 50.8423 41.7623 50.973 41.4213 51.2344C41.0804 51.4929 40.8148 51.8423 40.6245 52.2827C40.4341 52.7202 40.339 53.2088 40.339 53.7486C40.339 54.2884 40.4327 54.7784 40.6202 55.2188C40.8105 55.6591 41.0762 56.0085 41.4171 56.267C41.7608 56.5256 42.1614 56.6548 42.6188 56.6548ZM51.3983 54.6776V50.4545H51.9181V57H51.3983V55.9389H51.3556C51.2022 56.277 50.9537 56.5526 50.6099 56.7656C50.269 56.9787 49.8656 57.0852 49.3997 57.0852C48.9707 57.0852 48.5914 56.9915 48.2619 56.804C47.9324 56.6165 47.6738 56.3509 47.4863 56.0071C47.2988 55.6605 47.2051 55.2486 47.2051 54.7713V50.4545H47.725V54.75C47.725 55.2955 47.8897 55.7372 48.2193 56.0753C48.5517 56.4105 48.9806 56.5781 49.5062 56.5781C49.8471 56.5781 50.161 56.5014 50.448 56.348C50.7349 56.1946 50.965 55.9759 51.1383 55.6918C51.3116 55.4048 51.3983 55.0668 51.3983 54.6776ZM56.318 57.1364C55.7924 57.1364 55.3336 56.9915 54.9416 56.7017C54.5495 56.4119 54.2456 56.0128 54.0297 55.5043C53.8166 54.9929 53.71 54.4062 53.71 53.7443C53.71 53.0881 53.818 52.5057 54.0339 51.9972C54.2527 51.4858 54.5581 51.0852 54.9501 50.7955C55.3422 50.5028 55.7995 50.3565 56.3223 50.3565C56.6973 50.3565 57.0225 50.429 57.2981 50.5739C57.5765 50.7159 57.8095 50.9048 57.997 51.1406C58.1873 51.3764 58.3322 51.6349 58.4316 51.9162H58.4828V48.2727H58.9984V57H58.4956V55.5724H58.4316C58.3265 55.8537 58.1802 56.1136 57.9927 56.3523C57.8052 56.5881 57.5723 56.7784 57.2939 56.9233C57.0154 57.0653 56.6902 57.1364 56.318 57.1364ZM56.3649 56.6548C56.8081 56.6548 57.1873 56.5284 57.5027 56.2756C57.8208 56.0199 58.0637 55.6733 58.2314 55.2358C58.4018 54.7955 58.487 54.2969 58.487 53.7401C58.487 53.1832 58.4018 52.6875 58.2314 52.2528C58.0637 51.8153 57.8208 51.4716 57.5027 51.2216C57.1873 50.9687 56.8081 50.8423 56.3649 50.8423C55.916 50.8423 55.5311 50.9702 55.21 51.2259C54.8919 51.4787 54.6475 51.8239 54.4771 52.2614C54.3095 52.6989 54.2257 53.1918 54.2257 53.7401C54.2257 54.2884 54.3095 54.7827 54.4771 55.223C54.6475 55.6634 54.8919 56.0128 55.21 56.2713C55.5311 56.527 55.916 56.6548 56.3649 56.6548Z" fill="black"/>
</svg>
