<svg width="87" height="89" viewBox="0 0 87 89" fill="none" xmlns="http://www.w3.org/2000/svg">
<rect width="87" height="89" rx="15" fill="#D7C9D9"/>
<rect x="0.5" y="0.5" width="86" height="88" rx="14.5" stroke="black" stroke-opacity="0.06"/>
<path d="M32.9746 37.6364C32.9746 38.5369 32.8184 39.3239 32.5059 39.9972C32.1934 40.6676 31.7587 41.1889 31.2019 41.5611C30.6479 41.9332 30.0087 42.1193 29.2843 42.1193C28.557 42.1193 27.915 41.9332 27.3581 41.5611C26.8042 41.1861 26.3709 40.6634 26.0584 39.9929C25.7459 39.3196 25.5897 38.5341 25.5897 37.6364C25.5897 36.7358 25.7459 35.9503 26.0584 35.2798C26.3738 34.6094 26.8084 34.0881 27.3624 33.7159C27.9164 33.3409 28.557 33.1534 29.2843 33.1534C30.0087 33.1534 30.6479 33.3395 31.2019 33.7116C31.7587 34.0838 32.1934 34.6065 32.5059 35.2798C32.8184 35.9503 32.9746 36.7358 32.9746 37.6364ZM32.4547 37.6364C32.4547 36.8267 32.3184 36.125 32.0456 35.5312C31.7757 34.9375 31.4022 34.4787 30.9249 34.1548C30.4476 33.8281 29.9007 33.6648 29.2843 33.6648C28.6678 33.6648 28.1209 33.8267 27.6436 34.1506C27.1664 34.4716 26.7914 34.9304 26.5186 35.527C26.2488 36.1207 26.1138 36.8239 26.1138 37.6364C26.1138 38.4403 26.2473 39.1406 26.5144 39.7372C26.7843 40.331 27.1578 40.7912 27.6351 41.1179C28.1124 41.4446 28.6621 41.608 29.2843 41.608C29.9007 41.608 30.4476 41.446 30.9249 41.1222C31.4022 40.7955 31.7757 40.3352 32.0456 39.7415C32.3184 39.1477 32.4547 38.446 32.4547 37.6364ZM34.873 42V35.4545H35.3801V36.4773H35.427C35.5691 36.142 35.8091 35.8736 36.1472 35.6719C36.4853 35.4673 36.8702 35.3651 37.302 35.3651C37.3475 35.3651 37.3929 35.3651 37.4384 35.3651C37.4838 35.3651 37.5265 35.3665 37.5662 35.3693V35.8935C37.5321 35.8906 37.4909 35.8864 37.4426 35.8807C37.3972 35.8722 37.3404 35.8679 37.2722 35.8679C36.9086 35.8679 36.5847 35.946 36.3006 36.1023C36.0194 36.2585 35.7978 36.4744 35.6358 36.75C35.4739 37.0227 35.3929 37.3352 35.3929 37.6875V42H34.873ZM41.2182 42.1364C40.6614 42.1364 40.1713 41.9901 39.748 41.6974C39.3248 41.402 38.9938 40.9986 38.7551 40.4872C38.5194 39.9759 38.4015 39.3963 38.4015 38.7486C38.4015 38.1009 38.5208 37.5213 38.7594 37.0099C38.998 36.4986 39.329 36.0952 39.7523 35.7997C40.1756 35.5043 40.6628 35.3565 41.214 35.3565C41.6287 35.3565 42.0066 35.4418 42.3475 35.6122C42.6912 35.7827 42.9753 36.0199 43.1998 36.3239C43.427 36.6278 43.5719 36.9801 43.6344 37.3807H43.106C43.0208 36.9375 42.8077 36.571 42.4668 36.2812C42.1287 35.9886 41.7125 35.8423 41.2182 35.8423C40.775 35.8423 40.3801 35.9673 40.0336 36.2173C39.687 36.4645 39.4142 36.8068 39.2154 37.2443C39.0165 37.679 38.9171 38.1776 38.9171 38.7401C38.9171 39.294 39.0137 39.7912 39.2069 40.2315C39.4 40.669 39.6699 41.0156 40.0165 41.2713C40.3631 41.527 40.7637 41.6548 41.2182 41.6548C41.5392 41.6548 41.8319 41.5909 42.0961 41.4631C42.3631 41.3352 42.5861 41.1534 42.7651 40.9176C42.9441 40.6818 43.062 40.4062 43.1188 40.0909H43.6472C43.5847 40.4943 43.4426 40.8494 43.2211 41.1562C42.9995 41.4631 42.7168 41.7031 42.373 41.8764C42.0293 42.0497 41.6444 42.1364 41.2182 42.1364ZM45.9398 37.7557V42H45.4199V33.2727H45.9398V36.4901H45.9909C46.1444 36.1491 46.3887 35.8778 46.7239 35.6761C47.062 35.4716 47.4668 35.3693 47.9384 35.3693C48.3787 35.3693 48.7665 35.4631 49.1017 35.6506C49.437 35.8352 49.6983 36.1009 49.8858 36.4474C50.0762 36.7912 50.1713 37.2031 50.1713 37.6832V42H49.6557V37.7045C49.6557 37.1449 49.4895 36.696 49.1571 36.358C48.8248 36.0199 48.3858 35.8509 47.8404 35.8509C47.4739 35.8509 47.1472 35.9304 46.8603 36.0895C46.5733 36.2486 46.3475 36.4716 46.1827 36.7585C46.0208 37.0426 45.9398 37.375 45.9398 37.7557ZM52.3478 42V35.4545H52.8635V42H52.3478ZM52.6078 34.2955C52.4941 34.2955 52.3947 34.2557 52.3095 34.1761C52.2271 34.0966 52.1859 34 52.1859 33.8864C52.1859 33.7727 52.2271 33.6761 52.3095 33.5966C52.3919 33.517 52.4913 33.4773 52.6078 33.4773C52.7214 33.4773 52.8194 33.517 52.9018 33.5966C52.987 33.6761 53.0297 33.7727 53.0297 33.8864C53.0297 34 52.9885 34.0966 52.9061 34.1761C52.8237 34.2557 52.7243 34.2955 52.6078 34.2955ZM57.2868 42.1364C56.7612 42.1364 56.3024 41.9915 55.9103 41.7017C55.5183 41.4119 55.2143 41.0128 54.9984 40.5043C54.7853 39.9929 54.6788 39.4062 54.6788 38.7443C54.6788 38.0881 54.7868 37.5057 55.0027 36.9972C55.2214 36.4858 55.5268 36.0852 55.9189 35.7955C56.3109 35.5028 56.7683 35.3565 57.291 35.3565C57.666 35.3565 57.9913 35.429 58.2669 35.5739C58.5453 35.7159 58.7782 35.9048 58.9657 36.1406C59.1561 36.3764 59.301 36.6349 59.4004 36.9162H59.4515V33.2727H59.9672V42H59.4643V40.5724H59.4004C59.2953 40.8537 59.149 41.1136 58.9615 41.3523C58.774 41.5881 58.541 41.7784 58.2626 41.9233C57.9842 42.0653 57.6589 42.1364 57.2868 42.1364ZM57.3336 41.6548C57.7768 41.6548 58.1561 41.5284 58.4714 41.2756C58.7896 41.0199 59.0325 40.6733 59.2001 40.2358C59.3706 39.7955 59.4558 39.2969 59.4558 38.7401C59.4558 38.1832 59.3706 37.6875 59.2001 37.2528C59.0325 36.8153 58.7896 36.4716 58.4714 36.2216C58.1561 35.9687 57.7768 35.8423 57.3336 35.8423C56.8848 35.8423 56.4998 35.9702 56.1788 36.2259C55.8606 36.4787 55.6163 36.8239 55.4458 37.2614C55.2782 37.6989 55.1944 38.1918 55.1944 38.7401C55.1944 39.2884 55.2782 39.7827 55.4458 40.223C55.6163 40.6634 55.8606 41.0128 56.1788 41.2713C56.4998 41.527 56.8848 41.6548 57.3336 41.6548ZM33.0178 48.767V48.2727H39.1328V48.767H36.3416V57H35.8089V48.767H33.0178ZM40.9162 57V50.4545H41.4318V57H40.9162ZM41.1761 49.2955C41.0625 49.2955 40.9631 49.2557 40.8778 49.1761C40.7955 49.0966 40.7543 49 40.7543 48.8864C40.7543 48.7727 40.7955 48.6761 40.8778 48.5966C40.9602 48.517 41.0597 48.4773 41.1761 48.4773C41.2898 48.4773 41.3878 48.517 41.4702 48.5966C41.5554 48.6761 41.598 48.7727 41.598 48.8864C41.598 49 41.5568 49.0966 41.4744 49.1761C41.392 49.2557 41.2926 49.2955 41.1761 49.2955ZM44.1293 52.7557V57H43.6094V50.4545H44.1165V51.4901H44.1676C44.321 51.152 44.5668 50.8807 44.9048 50.6761C45.2429 50.4716 45.6449 50.3693 46.1108 50.3693C46.5511 50.3693 46.9375 50.4631 47.2699 50.6506C47.6051 50.8381 47.8665 51.1051 48.054 51.4517C48.2443 51.7955 48.3395 52.206 48.3395 52.6832V57H47.8196V52.7045C47.8196 52.1477 47.6534 51.7003 47.321 51.3622C46.9915 51.0213 46.5554 50.8509 46.0128 50.8509C45.6491 50.8509 45.3253 50.9304 45.0412 51.0895C44.7571 51.2486 44.5341 51.4716 44.3722 51.7585C44.2102 52.0426 44.1293 52.375 44.1293 52.7557ZM52.8139 50.4545V50.919H49.9545V50.4545H52.8139ZM50.9219 48.8864H51.4375V55.4531C51.4375 55.7202 51.4886 55.9389 51.5909 56.1094C51.696 56.277 51.8324 56.402 52 56.4844C52.1705 56.5639 52.3523 56.6037 52.5455 56.6037C52.6392 56.6037 52.7202 56.5966 52.7884 56.5824C52.8594 56.5682 52.9261 56.5497 52.9886 56.527L53.1165 57C53.0369 57.0284 52.9489 57.0526 52.8523 57.0724C52.7557 57.0952 52.642 57.1065 52.5114 57.1065C52.2386 57.1065 51.9801 57.0455 51.7358 56.9233C51.4943 56.8011 51.2983 56.6236 51.1477 56.3906C50.9972 56.1577 50.9219 55.8764 50.9219 55.5469V48.8864Z" fill="black"/>
</svg>
