<svg width="87" height="89" viewBox="0 0 87 89" fill="none" xmlns="http://www.w3.org/2000/svg">
<rect x="1.5" y="1.5" width="84" height="86" rx="13.5" fill="#F1F2F1" stroke="#837F73" stroke-width="3"/>
<path d="M34.6493 36H34.1039C34.0471 35.7045 33.9405 35.419 33.7843 35.1435C33.628 34.8651 33.4263 34.6151 33.1792 34.3935C32.9348 34.169 32.6507 33.9915 32.3269 33.8608C32.003 33.7301 31.6451 33.6648 31.253 33.6648C30.6792 33.6648 30.1507 33.8182 29.6678 34.125C29.1877 34.429 28.8027 34.8764 28.513 35.4673C28.226 36.0582 28.0826 36.7812 28.0826 37.6364C28.0826 38.4972 28.226 39.223 28.513 39.8139C28.8027 40.4048 29.1877 40.8523 29.6678 41.1562C30.1507 41.4574 30.6792 41.608 31.253 41.608C31.6451 41.608 32.003 41.544 32.3269 41.4162C32.6507 41.2855 32.9348 41.1094 33.1792 40.8878C33.4263 40.6634 33.628 40.4119 33.7843 40.1335C33.9405 39.8551 34.0471 39.5682 34.1039 39.2727H34.6493C34.5868 39.625 34.4661 39.9702 34.2871 40.3082C34.111 40.6463 33.878 40.9531 33.5882 41.2287C33.3013 41.5014 32.9618 41.7187 32.5698 41.8807C32.1806 42.0398 31.7417 42.1193 31.253 42.1193C30.5257 42.1193 29.8851 41.9347 29.3311 41.5653C28.7772 41.1932 28.3425 40.6705 28.0272 39.9972C27.7147 39.3239 27.5584 38.5369 27.5584 37.6364C27.5584 36.7358 27.7147 35.9489 28.0272 35.2756C28.3425 34.6023 28.7772 34.081 29.3311 33.7116C29.8851 33.3395 30.5257 33.1534 31.253 33.1534C31.7417 33.1534 32.1806 33.2344 32.5698 33.3963C32.9618 33.5554 33.3013 33.7713 33.5882 34.044C33.878 34.3139 34.111 34.6179 34.2871 34.956C34.4661 35.294 34.5868 35.642 34.6493 36ZM37.0336 33.2727V42H36.5137V33.2727H37.0336ZM41.6188 42.1364C41.079 42.1364 40.5989 41.9915 40.1784 41.7017C39.758 41.4091 39.427 41.0071 39.1855 40.4957C38.9441 39.9844 38.8233 39.402 38.8233 38.7486C38.8233 38.0923 38.9441 37.5099 39.1855 37.0014C39.427 36.4901 39.758 36.0881 40.1784 35.7955C40.5989 35.5028 41.079 35.3565 41.6188 35.3565C42.1586 35.3565 42.6387 35.5028 43.0591 35.7955C43.4796 36.0881 43.8105 36.4901 44.052 37.0014C44.2935 37.5128 44.4142 38.0952 44.4142 38.7486C44.4142 39.402 44.2935 39.9844 44.052 40.4957C43.8105 41.0071 43.4796 41.4091 43.0591 41.7017C42.6387 41.9915 42.1586 42.1364 41.6188 42.1364ZM41.6188 41.6548C42.0762 41.6548 42.4753 41.5256 42.8162 41.267C43.16 41.0085 43.4256 40.6591 43.6131 40.2188C43.8034 39.7784 43.8986 39.2884 43.8986 38.7486C43.8986 38.2088 43.8034 37.7202 43.6131 37.2827C43.4228 36.8423 43.1571 36.4929 42.8162 36.2344C42.4753 35.973 42.0762 35.8423 41.6188 35.8423C41.1614 35.8423 40.7623 35.973 40.4213 36.2344C40.0804 36.4929 39.8148 36.8423 39.6245 37.2827C39.4341 37.7202 39.339 38.2088 39.339 38.7486C39.339 39.2884 39.4327 39.7784 39.6202 40.2188C39.8105 40.6591 40.0762 41.0085 40.4171 41.267C40.7608 41.5256 41.1614 41.6548 41.6188 41.6548ZM50.3983 39.6776V35.4545H50.9181V42H50.3983V40.9389H50.3556C50.2022 41.277 49.9537 41.5526 49.6099 41.7656C49.269 41.9787 48.8656 42.0852 48.3997 42.0852C47.9707 42.0852 47.5914 41.9915 47.2619 41.804C46.9324 41.6165 46.6738 41.3509 46.4863 41.0071C46.2988 40.6605 46.2051 40.2486 46.2051 39.7713V35.4545H46.725V39.75C46.725 40.2955 46.8897 40.7372 47.2193 41.0753C47.5517 41.4105 47.9806 41.5781 48.5062 41.5781C48.8471 41.5781 49.161 41.5014 49.448 41.348C49.7349 41.1946 49.965 40.9759 50.1383 40.6918C50.3116 40.4048 50.3983 40.0668 50.3983 39.6776ZM55.318 42.1364C54.7924 42.1364 54.3336 41.9915 53.9416 41.7017C53.5495 41.4119 53.2456 41.0128 53.0297 40.5043C52.8166 39.9929 52.71 39.4062 52.71 38.7443C52.71 38.0881 52.818 37.5057 53.0339 36.9972C53.2527 36.4858 53.5581 36.0852 53.9501 35.7955C54.3422 35.5028 54.7995 35.3565 55.3223 35.3565C55.6973 35.3565 56.0225 35.429 56.2981 35.5739C56.5765 35.7159 56.8095 35.9048 56.997 36.1406C57.1873 36.3764 57.3322 36.6349 57.4316 36.9162H57.4828V33.2727H57.9984V42H57.4956V40.5724H57.4316C57.3265 40.8537 57.1802 41.1136 56.9927 41.3523C56.8052 41.5881 56.5723 41.7784 56.2939 41.9233C56.0154 42.0653 55.6902 42.1364 55.318 42.1364ZM55.3649 41.6548C55.8081 41.6548 56.1873 41.5284 56.5027 41.2756C56.8208 41.0199 57.0637 40.6733 57.2314 40.2358C57.4018 39.7955 57.487 39.2969 57.487 38.7401C57.487 38.1832 57.4018 37.6875 57.2314 37.2528C57.0637 36.8153 56.8208 36.4716 56.5027 36.2216C56.1873 35.9687 55.8081 35.8423 55.3649 35.8423C54.916 35.8423 54.5311 35.9702 54.21 36.2259C53.8919 36.4787 53.6475 36.8239 53.4771 37.2614C53.3095 37.6989 53.2257 38.1918 53.2257 38.7401C53.2257 39.2884 53.3095 39.7827 53.4771 40.223C53.6475 40.6634 53.8919 41.0128 54.21 41.2713C54.5311 41.527 54.916 41.6548 55.3649 41.6548ZM26.8068 57H24.3864V48.2727H26.9943C27.8125 48.2727 28.5128 48.446 29.0952 48.7926C29.6776 49.1392 30.1236 49.6364 30.4332 50.2841C30.7457 50.929 30.9006 51.7031 30.8977 52.6065C30.8949 53.5298 30.733 54.3196 30.4119 54.9759C30.0909 55.6293 29.6264 56.1307 29.0185 56.4801C28.4105 56.8267 27.6733 57 26.8068 57ZM24.919 56.5057H26.7855C27.5639 56.5057 28.2202 56.3509 28.7543 56.0412C29.2884 55.7287 29.6918 55.2812 29.9645 54.6989C30.2401 54.1165 30.3764 53.419 30.3736 52.6065C30.3736 51.8054 30.2415 51.1193 29.9773 50.5483C29.7131 49.9744 29.3281 49.5341 28.8224 49.2273C28.3196 48.9205 27.7031 48.767 26.973 48.767H24.919V56.5057ZM34.5273 57.1406C34.1495 57.1406 33.8029 57.0653 33.4876 56.9148C33.1751 56.7642 32.9237 56.544 32.7333 56.2543C32.5458 55.9645 32.4521 55.6122 32.4521 55.1974C32.4521 54.9247 32.5004 54.6847 32.5969 54.4773C32.6935 54.2699 32.8427 54.0909 33.0444 53.9403C33.2461 53.7898 33.5046 53.6662 33.82 53.5696C34.1353 53.4702 34.5117 53.3935 34.9492 53.3395C35.2816 53.2997 35.5785 53.2614 35.8398 53.2244C36.1012 53.1847 36.3058 53.1236 36.4535 53.0412C36.604 52.9588 36.6793 52.8338 36.6793 52.6662V52.3935C36.6793 51.9162 36.5288 51.5369 36.2276 51.2557C35.9265 50.9744 35.5117 50.8338 34.9833 50.8338C34.5146 50.8338 34.1197 50.9375 33.7987 51.1449C33.4805 51.3494 33.2575 51.6136 33.1296 51.9375L32.6396 51.7543C32.7646 51.4418 32.945 51.1818 33.1808 50.9744C33.4194 50.767 33.6921 50.6122 33.9989 50.5099C34.3086 50.4077 34.6325 50.3565 34.9705 50.3565C35.2631 50.3565 35.5415 50.3977 35.8058 50.4801C36.0728 50.5625 36.31 50.6875 36.5174 50.8551C36.7276 51.0227 36.8938 51.2372 37.016 51.4986C37.1381 51.7571 37.1992 52.0668 37.1992 52.4276V57H36.6793V55.8196H36.641C36.5273 56.0639 36.3711 56.2869 36.1722 56.4886C35.9762 56.6875 35.739 56.8466 35.4606 56.9659C35.185 57.0824 34.8739 57.1406 34.5273 57.1406ZM34.5785 56.6591C34.9876 56.6591 35.3498 56.5597 35.6651 56.3608C35.9833 56.1591 36.2319 55.8835 36.4109 55.5341C36.5898 55.1847 36.6793 54.7884 36.6793 54.3452V53.3821C36.614 53.4389 36.5188 53.4901 36.3938 53.5355C36.2717 53.5781 36.1325 53.6165 35.9762 53.6506C35.8228 53.6818 35.6609 53.7102 35.4904 53.7358C35.3228 53.7585 35.1594 53.7798 35.0004 53.7997C34.5231 53.8565 34.1339 53.9446 33.8327 54.0639C33.5344 54.1804 33.3157 54.3338 33.1765 54.5241C33.0401 54.7145 32.9719 54.9446 32.9719 55.2145C32.9719 55.6605 33.1254 56.0128 33.4322 56.2713C33.739 56.5298 34.1211 56.6591 34.5785 56.6591ZM39.8988 52.7557V57H39.3789V50.4545H39.886V51.4901H39.9371C40.0906 51.152 40.3363 50.8807 40.6744 50.6761C41.0124 50.4716 41.4144 50.3693 41.8803 50.3693C42.3207 50.3693 42.707 50.4631 43.0394 50.6506C43.3746 50.8381 43.636 51.1051 43.8235 51.4517C44.0138 51.7955 44.109 52.206 44.109 52.6832V57H43.5891V52.7045C43.5891 52.1477 43.4229 51.7003 43.0906 51.3622C42.761 51.0213 42.3249 50.8509 41.7823 50.8509C41.4187 50.8509 41.0948 50.9304 40.8107 51.0895C40.5266 51.2486 40.3036 51.4716 40.1417 51.7585C39.9798 52.0426 39.8988 52.375 39.8988 52.7557ZM48.7241 57.1364C48.1673 57.1364 47.6772 56.9901 47.2539 56.6974C46.8306 56.402 46.4996 55.9986 46.261 55.4872C46.0252 54.9759 45.9073 54.3963 45.9073 53.7486C45.9073 53.1009 46.0266 52.5213 46.2653 52.0099C46.5039 51.4986 46.8349 51.0952 47.2582 50.7997C47.6815 50.5043 48.1687 50.3565 48.7198 50.3565C49.1346 50.3565 49.5124 50.4418 49.8533 50.6122C50.1971 50.7827 50.4812 51.0199 50.7056 51.3239C50.9329 51.6278 51.0778 51.9801 51.1403 52.3807H50.6119C50.5266 51.9375 50.3136 51.571 49.9727 51.2812C49.6346 50.9886 49.2184 50.8423 48.7241 50.8423C48.2809 50.8423 47.886 50.9673 47.5394 51.2173C47.1928 51.4645 46.9201 51.8068 46.7212 52.2443C46.5224 52.679 46.4229 53.1776 46.4229 53.7401C46.4229 54.294 46.5195 54.7912 46.7127 55.2315C46.9059 55.669 47.1758 56.0156 47.5224 56.2713C47.869 56.527 48.2695 56.6548 48.7241 56.6548C49.0451 56.6548 49.3377 56.5909 49.6019 56.4631C49.869 56.3352 50.092 56.1534 50.271 55.9176C50.4499 55.6818 50.5678 55.4062 50.6246 55.0909H51.1531C51.0906 55.4943 50.9485 55.8494 50.7269 56.1562C50.5053 56.4631 50.2227 56.7031 49.8789 56.8764C49.5352 57.0497 49.1502 57.1364 48.7241 57.1364ZM55.4783 57.1364C54.8874 57.1364 54.3732 56.9901 53.9357 56.6974C53.4982 56.4048 53.1602 56.0043 52.9215 55.4957C52.6829 54.9872 52.5636 54.4077 52.5636 53.7571C52.5636 53.1037 52.6829 52.5213 52.9215 52.0099C53.163 51.4986 53.494 51.0952 53.9144 50.7997C54.3349 50.5043 54.815 50.3565 55.3548 50.3565C55.7212 50.3565 56.0678 50.4304 56.3945 50.5781C56.7241 50.723 57.0138 50.9332 57.2638 51.2088C57.5167 51.4844 57.7141 51.8168 57.8562 52.206C58.0011 52.5952 58.0735 53.0327 58.0735 53.5185V53.8423H52.8917V53.3693H57.5536C57.5536 52.8949 57.457 52.4673 57.2638 52.0866C57.0707 51.706 56.8079 51.4034 56.4755 51.179C56.1431 50.9545 55.7695 50.8423 55.3548 50.8423C54.9201 50.8423 54.5323 50.9645 54.1914 51.2088C53.8533 51.4503 53.5849 51.777 53.386 52.1889C53.19 52.6009 53.0877 53.0611 53.0792 53.5696V53.7827C53.0792 54.3281 53.1744 54.8182 53.3647 55.2528C53.5579 55.6847 53.8335 56.027 54.1914 56.2798C54.5494 56.5298 54.9783 56.6548 55.4783 56.6548C55.8363 56.6548 56.1417 56.5952 56.3945 56.4759C56.6502 56.3537 56.859 56.206 57.021 56.0327C57.1829 55.8594 57.305 55.6918 57.3874 55.5298L57.8604 55.7216C57.761 55.9403 57.6062 56.1591 57.396 56.3778C57.1886 56.5937 56.9244 56.7741 56.6033 56.919C56.2852 57.0639 55.9102 57.1364 55.4783 57.1364ZM59.8633 57V50.4545H60.3704V51.4773H60.4173C60.5593 51.142 60.7994 50.8736 61.1374 50.6719C61.4755 50.4673 61.8604 50.3651 62.2923 50.3651C62.3377 50.3651 62.3832 50.3651 62.4286 50.3651C62.4741 50.3651 62.5167 50.3665 62.5565 50.3693V50.8935C62.5224 50.8906 62.4812 50.8864 62.4329 50.8807C62.3874 50.8722 62.3306 50.8679 62.2624 50.8679C61.8988 50.8679 61.5749 50.946 61.2908 51.1023C61.0096 51.2585 60.788 51.4744 60.6261 51.75C60.4641 52.0227 60.3832 52.3352 60.3832 52.6875V57H59.8633Z" fill="black"/>
</svg>
