<svg width="87" height="89" viewBox="0 0 87 89" fill="none" xmlns="http://www.w3.org/2000/svg">
<rect width="87" height="89" rx="15" fill="#F6E199"/>
<rect x="0.5" y="0.5" width="86" height="88" rx="14.5" stroke="black" stroke-opacity="0.06"/>
<path d="M25.3825 42V33.2727H25.9151V41.5057H30.1765V42H25.3825ZM34.5018 42.1364C33.9109 42.1364 33.3967 41.9901 32.9592 41.6974C32.5217 41.4048 32.1836 41.0043 31.945 40.4957C31.7063 39.9872 31.587 39.4077 31.587 38.7571C31.587 38.1037 31.7063 37.5213 31.945 37.0099C32.1864 36.4986 32.5174 36.0952 32.9379 35.7997C33.3583 35.5043 33.8384 35.3565 34.3782 35.3565C34.7447 35.3565 35.0913 35.4304 35.418 35.5781C35.7475 35.723 36.0373 35.9332 36.2873 36.2088C36.5401 36.4844 36.7376 36.8168 36.8796 37.206C37.0245 37.5952 37.0969 38.0327 37.0969 38.5185V38.8423H31.9151V38.3693H36.5771C36.5771 37.8949 36.4805 37.4673 36.2873 37.0866C36.0941 36.706 35.8313 36.4034 35.4989 36.179C35.1665 35.9545 34.793 35.8423 34.3782 35.8423C33.9435 35.8423 33.5558 35.9645 33.2148 36.2088C32.8768 36.4503 32.6083 36.777 32.4094 37.1889C32.2134 37.6009 32.1112 38.0611 32.1026 38.5696V38.7827C32.1026 39.3281 32.1978 39.8182 32.3881 40.2528C32.5813 40.6847 32.8569 41.027 33.2148 41.2798C33.5728 41.5298 34.0018 41.6548 34.5018 41.6548C34.8597 41.6548 35.1651 41.5952 35.418 41.4759C35.6737 41.3537 35.8825 41.206 36.0444 41.0327C36.2063 40.8594 36.3285 40.6918 36.4109 40.5298L36.8839 40.7216C36.7844 40.9403 36.6296 41.1591 36.4194 41.3778C36.212 41.5937 35.9478 41.7741 35.6268 41.919C35.3086 42.0639 34.9336 42.1364 34.5018 42.1364ZM38.8867 42V35.4545H39.3938V36.4432H39.445C39.57 36.1136 39.7859 35.8523 40.0927 35.6591C40.3995 35.4659 40.7688 35.3693 41.2006 35.3693C41.6751 35.3693 42.0572 35.483 42.3469 35.7102C42.6396 35.9375 42.8498 36.2457 42.9776 36.6349H43.0245C43.1523 36.2514 43.381 35.9446 43.7106 35.7145C44.043 35.4844 44.4521 35.3693 44.9379 35.3693C45.5714 35.3693 46.0543 35.5696 46.3867 35.9702C46.7219 36.3679 46.8896 36.9134 46.8896 37.6065V42H46.3697V37.6065C46.3697 37.0611 46.239 36.6321 45.9776 36.3196C45.7163 36.0071 45.3327 35.8509 44.8271 35.8509C44.2873 35.8509 43.8725 36.0199 43.5827 36.358C43.293 36.696 43.1481 37.1264 43.1481 37.6491V42H42.6282V37.5724C42.6282 37.0639 42.5004 36.6506 42.2447 36.3324C41.989 36.0114 41.6055 35.8509 41.0941 35.8509C40.7475 35.8509 40.4478 35.9304 40.195 36.0895C39.945 36.2486 39.7504 36.4673 39.6112 36.7457C39.4748 37.0241 39.4066 37.3437 39.4066 37.7045V42H38.8867ZM51.4801 42.1364C50.9403 42.1364 50.4602 41.9915 50.0398 41.7017C49.6193 41.4091 49.2884 41.0071 49.0469 40.4957C48.8054 39.9844 48.6847 39.402 48.6847 38.7486C48.6847 38.0923 48.8054 37.5099 49.0469 37.0014C49.2884 36.4901 49.6193 36.0881 50.0398 35.7955C50.4602 35.5028 50.9403 35.3565 51.4801 35.3565C52.0199 35.3565 52.5 35.5028 52.9205 35.7955C53.3409 36.0881 53.6719 36.4901 53.9134 37.0014C54.1548 37.5128 54.2756 38.0952 54.2756 38.7486C54.2756 39.402 54.1548 39.9844 53.9134 40.4957C53.6719 41.0071 53.3409 41.4091 52.9205 41.7017C52.5 41.9915 52.0199 42.1364 51.4801 42.1364ZM51.4801 41.6548C51.9375 41.6548 52.3366 41.5256 52.6776 41.267C53.0213 41.0085 53.2869 40.6591 53.4744 40.2188C53.6648 39.7784 53.7599 39.2884 53.7599 38.7486C53.7599 38.2088 53.6648 37.7202 53.4744 37.2827C53.2841 36.8423 53.0185 36.4929 52.6776 36.2344C52.3366 35.973 51.9375 35.8423 51.4801 35.8423C51.0227 35.8423 50.6236 35.973 50.2827 36.2344C49.9418 36.4929 49.6761 36.8423 49.4858 37.2827C49.2955 37.7202 49.2003 38.2088 49.2003 38.7486C49.2003 39.2884 49.294 39.7784 49.4815 40.2188C49.6719 40.6591 49.9375 41.0085 50.2784 41.267C50.6222 41.5256 51.0227 41.6548 51.4801 41.6548ZM56.5863 37.7557V42H56.0664V35.4545H56.5735V36.4901H56.6246C56.7781 36.152 57.0238 35.8807 57.3619 35.6761C57.6999 35.4716 58.1019 35.3693 58.5678 35.3693C59.0082 35.3693 59.3945 35.4631 59.7269 35.6506C60.0621 35.8381 60.3235 36.1051 60.511 36.4517C60.7013 36.7955 60.7965 37.206 60.7965 37.6832V42H60.2766V37.7045C60.2766 37.1477 60.1104 36.7003 59.7781 36.3622C59.4485 36.0213 59.0124 35.8509 58.4698 35.8509C58.1062 35.8509 57.7823 35.9304 57.4982 36.0895C57.2141 36.2486 56.9911 36.4716 56.8292 36.7585C56.6673 37.0426 56.5863 37.375 56.5863 37.7557ZM31.5753 48.2727V57H31.0426V48.2727H31.5753ZM36.3725 57.1364C35.8157 57.1364 35.3256 56.9901 34.9023 56.6974C34.479 56.402 34.1481 55.9986 33.9094 55.4872C33.6737 54.9759 33.5558 54.3963 33.5558 53.7486C33.5558 53.1009 33.6751 52.5213 33.9137 52.0099C34.1523 51.4986 34.4833 51.0952 34.9066 50.7997C35.3299 50.5043 35.8171 50.3565 36.3683 50.3565C36.783 50.3565 37.1609 50.4418 37.5018 50.6122C37.8455 50.7827 38.1296 51.0199 38.354 51.3239C38.5813 51.6278 38.7262 51.9801 38.7887 52.3807H38.2603C38.1751 51.9375 37.962 51.571 37.6211 51.2812C37.283 50.9886 36.8668 50.8423 36.3725 50.8423C35.9293 50.8423 35.5344 50.9673 35.1879 51.2173C34.8413 51.4645 34.5685 51.8068 34.3697 52.2443C34.1708 52.679 34.0714 53.1776 34.0714 53.7401C34.0714 54.294 34.168 54.7912 34.3612 55.2315C34.5543 55.669 34.8242 56.0156 35.1708 56.2713C35.5174 56.527 35.918 56.6548 36.3725 56.6548C36.6935 56.6548 36.9862 56.5909 37.2504 56.4631C37.5174 56.3352 37.7404 56.1534 37.9194 55.9176C38.0984 55.6818 38.2163 55.4062 38.2731 55.0909H38.8015C38.739 55.4943 38.5969 55.8494 38.3754 56.1562C38.1538 56.4631 37.8711 56.7031 37.5273 56.8764C37.1836 57.0497 36.7987 57.1364 36.3725 57.1364ZM40.5998 57V50.4545H41.1154V57H40.5998ZM40.8597 49.2955C40.7461 49.2955 40.6467 49.2557 40.5614 49.1761C40.479 49.0966 40.4379 49 40.4379 48.8864C40.4379 48.7727 40.479 48.6761 40.5614 48.5966C40.6438 48.517 40.7433 48.4773 40.8597 48.4773C40.9734 48.4773 41.0714 48.517 41.1538 48.5966C41.239 48.6761 41.2816 48.7727 41.2816 48.8864C41.2816 49 41.2404 49.0966 41.158 49.1761C41.0756 49.2557 40.9762 49.2955 40.8597 49.2955ZM43.8129 52.7557V57H43.293V50.4545H43.8001V51.4901H43.8512C44.0046 51.152 44.2504 50.8807 44.5884 50.6761C44.9265 50.4716 45.3285 50.3693 45.7944 50.3693C46.2347 50.3693 46.6211 50.4631 46.9535 50.6506C47.2887 50.8381 47.5501 51.1051 47.7376 51.4517C47.9279 51.7955 48.0231 52.206 48.0231 52.6832V57H47.5032V52.7045C47.5032 52.1477 47.337 51.7003 47.0046 51.3622C46.6751 51.0213 46.239 50.8509 45.6964 50.8509C45.3327 50.8509 45.0089 50.9304 44.7248 51.0895C44.4407 51.2486 44.2177 51.4716 44.0558 51.7585C43.8938 52.0426 43.8129 52.375 43.8129 52.7557ZM52.5444 59.5909C52.1381 59.5909 51.7731 59.5369 51.4492 59.429C51.1254 59.3239 50.8498 59.1733 50.6225 58.9773C50.3981 58.7813 50.2262 58.5483 50.1069 58.2784L50.5415 58.0227C50.6381 58.233 50.7759 58.4205 50.9549 58.5852C51.1339 58.75 51.3555 58.8793 51.6197 58.973C51.8867 59.0668 52.195 59.1136 52.5444 59.1136C53.1751 59.1136 53.6737 58.9503 54.0401 58.6236C54.4094 58.2997 54.5941 57.8026 54.5941 57.1321V55.5043H54.543C54.4435 55.7884 54.2958 56.0412 54.0998 56.2628C53.9066 56.4815 53.6694 56.6534 53.3881 56.7784C53.1069 56.9034 52.7873 56.9659 52.4293 56.9659C51.9123 56.9659 51.4577 56.8324 51.0657 56.5653C50.6737 56.2983 50.3683 55.9233 50.1495 55.4403C49.9308 54.9545 49.8214 54.3835 49.8214 53.7273C49.8214 53.071 49.9279 52.4901 50.141 51.9844C50.3569 51.4759 50.6609 51.0781 51.0529 50.7912C51.445 50.5014 51.9052 50.3565 52.4336 50.3565C52.8114 50.3565 53.1381 50.429 53.4137 50.5739C53.6921 50.7159 53.9251 50.9048 54.1126 51.1406C54.3001 51.3764 54.445 51.6349 54.5472 51.9162H54.6069V50.4545H55.1097V57.1534C55.1097 57.6989 55.0018 58.152 54.7859 58.5128C54.5728 58.8736 54.2731 59.1435 53.8867 59.3224C53.5032 59.5014 53.0558 59.5909 52.5444 59.5909ZM52.4762 56.4844C52.9137 56.4844 53.2901 56.3736 53.6055 56.152C53.9237 55.9276 54.168 55.6094 54.3384 55.1974C54.5117 54.7827 54.5984 54.2912 54.5984 53.723C54.5984 53.1719 54.5146 52.679 54.3469 52.2443C54.1793 51.8097 53.9364 51.4673 53.6183 51.2173C53.3001 50.9673 52.9194 50.8423 52.4762 50.8423C52.0245 50.8423 51.6396 50.9702 51.3214 51.2259C51.0032 51.4787 50.7589 51.8224 50.5884 52.2571C50.4208 52.6918 50.337 53.1804 50.337 53.723C50.337 54.2685 50.4222 54.7486 50.5927 55.1634C50.7631 55.5753 51.0075 55.8991 51.3256 56.1349C51.6438 56.3679 52.0273 56.4844 52.4762 56.4844Z" fill="black"/>
</svg>
