<svg width="87" height="89" viewBox="0 0 87 89" fill="none" xmlns="http://www.w3.org/2000/svg">
<rect width="87" height="89" rx="15" fill="#D9E2E6"/>
<rect x="0.5" y="0.5" width="86" height="88" rx="14.5" stroke="black" stroke-opacity="0.06"/>
<path d="M35.4679 33.2727V42H34.9352V33.2727H35.4679ZM40.2651 42.1364C39.7083 42.1364 39.2182 41.9901 38.7949 41.6974C38.3716 41.402 38.0407 40.9986 37.802 40.4872C37.5662 39.9759 37.4483 39.3963 37.4483 38.7486C37.4483 38.1009 37.5676 37.5213 37.8063 37.0099C38.0449 36.4986 38.3759 36.0952 38.7992 35.7997C39.2225 35.5043 39.7097 35.3565 40.2608 35.3565C40.6756 35.3565 41.0534 35.4418 41.3944 35.6122C41.7381 35.7827 42.0222 36.0199 42.2466 36.3239C42.4739 36.6278 42.6188 36.9801 42.6813 37.3807H42.1529C42.0676 36.9375 41.8546 36.571 41.5137 36.2812C41.1756 35.9886 40.7594 35.8423 40.2651 35.8423C39.8219 35.8423 39.427 35.9673 39.0804 36.2173C38.7338 36.4645 38.4611 36.8068 38.2623 37.2443C38.0634 37.679 37.964 38.1776 37.964 38.7401C37.964 39.294 38.0605 39.7912 38.2537 40.2315C38.4469 40.669 38.7168 41.0156 39.0634 41.2713C39.41 41.527 39.8105 41.6548 40.2651 41.6548C40.5861 41.6548 40.8787 41.5909 41.1429 41.4631C41.41 41.3352 41.633 41.1534 41.812 40.9176C41.9909 40.6818 42.1088 40.4062 42.1657 40.0909H42.6941C42.6316 40.4943 42.4895 40.8494 42.2679 41.1562C42.0463 41.4631 41.7637 41.7031 41.4199 41.8764C41.0762 42.0497 40.6912 42.1364 40.2651 42.1364ZM47.0194 42.1364C46.4284 42.1364 45.9142 41.9901 45.4767 41.6974C45.0392 41.4048 44.7012 41.0043 44.4625 40.4957C44.2239 39.9872 44.1046 39.4077 44.1046 38.7571C44.1046 38.1037 44.2239 37.5213 44.4625 37.0099C44.704 36.4986 45.035 36.0952 45.4554 35.7997C45.8759 35.5043 46.356 35.3565 46.8958 35.3565C47.2623 35.3565 47.6088 35.4304 47.9355 35.5781C48.2651 35.723 48.5549 35.9332 48.8049 36.2088C49.0577 36.4844 49.2551 36.8168 49.3972 37.206C49.5421 37.5952 49.6145 38.0327 49.6145 38.5185V38.8423H44.4327V38.3693H49.0946C49.0946 37.8949 48.998 37.4673 48.8049 37.0866C48.6117 36.706 48.3489 36.4034 48.0165 36.179C47.6841 35.9545 47.3105 35.8423 46.8958 35.8423C46.4611 35.8423 46.0733 35.9645 45.7324 36.2088C45.3944 36.4503 45.1259 36.777 44.927 37.1889C44.731 37.6009 44.6287 38.0611 44.6202 38.5696V38.7827C44.6202 39.3281 44.7154 39.8182 44.9057 40.2528C45.0989 40.6847 45.3745 41.027 45.7324 41.2798C46.0904 41.5298 46.5194 41.6548 47.0194 41.6548C47.3773 41.6548 47.6827 41.5952 47.9355 41.4759C48.1912 41.3537 48.4 41.206 48.562 41.0327C48.7239 40.8594 48.8461 40.6918 48.9284 40.5298L49.4015 40.7216C49.302 40.9403 49.1472 41.1591 48.937 41.3778C48.7296 41.5937 48.4654 41.7741 48.1444 41.919C47.8262 42.0639 47.4512 42.1364 47.0194 42.1364ZM31.1032 48.2727H31.6827L35.0449 56.233H35.1046L38.4668 48.2727H39.0463V57H38.535V49.5384H38.4838L35.3262 57H34.8233L31.6657 49.5384H31.6145V57H31.1032V48.2727ZM43.9373 57.1364C43.3464 57.1364 42.8322 56.9901 42.3947 56.6974C41.9572 56.4048 41.6191 56.0043 41.3805 55.4957C41.1419 54.9872 41.0225 54.4077 41.0225 53.7571C41.0225 53.1037 41.1419 52.5213 41.3805 52.0099C41.622 51.4986 41.9529 51.0952 42.3734 50.7997C42.7939 50.5043 43.274 50.3565 43.8137 50.3565C44.1802 50.3565 44.5268 50.4304 44.8535 50.5781C45.1831 50.723 45.4728 50.9332 45.7228 51.2088C45.9757 51.4844 46.1731 51.8168 46.3152 52.206C46.4601 52.5952 46.5325 53.0327 46.5325 53.5185V53.8423H41.3507V53.3693H46.0126C46.0126 52.8949 45.916 52.4673 45.7228 52.0866C45.5297 51.706 45.2669 51.4034 44.9345 51.179C44.6021 50.9545 44.2285 50.8423 43.8137 50.8423C43.3791 50.8423 42.9913 50.9645 42.6504 51.2088C42.3123 51.4503 42.0439 51.777 41.845 52.1889C41.649 52.6009 41.5467 53.0611 41.5382 53.5696V53.7827C41.5382 54.3281 41.6333 54.8182 41.8237 55.2528C42.0169 55.6847 42.2924 56.027 42.6504 56.2798C43.0083 56.5298 43.4373 56.6548 43.9373 56.6548C44.2953 56.6548 44.6007 56.5952 44.8535 56.4759C45.1092 56.3537 45.318 56.206 45.4799 56.0327C45.6419 55.8594 45.764 55.6918 45.8464 55.5298L46.3194 55.7216C46.22 55.9403 46.0652 56.1591 45.8549 56.3778C45.6475 56.5937 45.3833 56.7741 45.0623 56.919C44.7441 57.0639 44.3691 57.1364 43.9373 57.1364ZM48.8422 48.2727V57H48.3223V48.2727H48.8422ZM53.3081 50.4545V50.919H50.4487V50.4545H53.3081ZM51.416 48.8864H51.9316V55.4531C51.9316 55.7202 51.9828 55.9389 52.085 56.1094C52.1902 56.277 52.3265 56.402 52.4941 56.4844C52.6646 56.5639 52.8464 56.6037 53.0396 56.6037C53.1333 56.6037 53.2143 56.5966 53.2825 56.5824C53.3535 56.5682 53.4203 56.5497 53.4828 56.527L53.6106 57C53.5311 57.0284 53.443 57.0526 53.3464 57.0724C53.2498 57.0952 53.1362 57.1065 53.0055 57.1065C52.7328 57.1065 52.4743 57.0455 52.2299 56.9233C51.9885 56.8011 51.7924 56.6236 51.6419 56.3906C51.4913 56.1577 51.416 55.8764 51.416 55.5469V48.8864Z" fill="black"/>
</svg>
