<svg width="87" height="89" viewBox="0 0 87 89" fill="none" xmlns="http://www.w3.org/2000/svg">
<g opacity="0.7">
<rect width="87" height="89" rx="15" fill="#E7CFC2"/>
<rect x="0.5" y="0.5" width="86" height="88" rx="14.5" stroke="black" stroke-opacity="0.06"/>
</g>
<path d="M27.5582 42V33.2727H30.2472C30.8011 33.2727 31.2756 33.3864 31.6705 33.6136C32.0682 33.8409 32.3736 34.152 32.5866 34.5469C32.7997 34.9418 32.9062 35.392 32.9062 35.8977C32.9062 36.3977 32.7997 36.8452 32.5866 37.2401C32.3736 37.6349 32.0682 37.9474 31.6705 38.1776C31.2756 38.4048 30.8026 38.5185 30.2514 38.5185H27.9332V38.0241H30.2386C30.6875 38.0241 31.071 37.9332 31.3892 37.7514C31.7074 37.5668 31.9517 37.3153 32.1222 36.9972C32.2926 36.6761 32.3778 36.3097 32.3778 35.8977C32.3778 35.483 32.2926 35.1151 32.1222 34.794C31.9517 34.473 31.706 34.2216 31.3849 34.0398C31.0668 33.858 30.6832 33.767 30.2344 33.767H28.0909V42H27.5582ZM37.2518 42.1364C36.6609 42.1364 36.1467 41.9901 35.7092 41.6974C35.2717 41.4048 34.9336 41.0043 34.695 40.4957C34.4563 39.9872 34.337 39.4077 34.337 38.7571C34.337 38.1037 34.4563 37.5213 34.695 37.0099C34.9364 36.4986 35.2674 36.0952 35.6879 35.7997C36.1083 35.5043 36.5884 35.3565 37.1282 35.3565C37.4947 35.3565 37.8413 35.4304 38.168 35.5781C38.4975 35.723 38.7873 35.9332 39.0373 36.2088C39.2901 36.4844 39.4876 36.8168 39.6296 37.206C39.7745 37.5952 39.8469 38.0327 39.8469 38.5185V38.8423H34.6651V38.3693H39.3271C39.3271 37.8949 39.2305 37.4673 39.0373 37.0866C38.8441 36.706 38.5813 36.4034 38.2489 36.179C37.9165 35.9545 37.543 35.8423 37.1282 35.8423C36.6935 35.8423 36.3058 35.9645 35.9648 36.2088C35.6268 36.4503 35.3583 36.777 35.1594 37.1889C34.9634 37.6009 34.8612 38.0611 34.8526 38.5696V38.7827C34.8526 39.3281 34.9478 39.8182 35.1381 40.2528C35.3313 40.6847 35.6069 41.027 35.9648 41.2798C36.3228 41.5298 36.7518 41.6548 37.2518 41.6548C37.6097 41.6548 37.9151 41.5952 38.168 41.4759C38.4237 41.3537 38.6325 41.206 38.7944 41.0327C38.9563 40.8594 39.0785 40.6918 39.1609 40.5298L39.6339 40.7216C39.5344 40.9403 39.3796 41.1591 39.1694 41.3778C38.962 41.5937 38.6978 41.7741 38.3768 41.919C38.0586 42.0639 37.6836 42.1364 37.2518 42.1364ZM43.3711 42.1406C42.9933 42.1406 42.6467 42.0653 42.3313 41.9148C42.0188 41.7642 41.7674 41.544 41.5771 41.2543C41.3896 40.9645 41.2958 40.6122 41.2958 40.1974C41.2958 39.9247 41.3441 39.6847 41.4407 39.4773C41.5373 39.2699 41.6864 39.0909 41.8881 38.9403C42.0898 38.7898 42.3484 38.6662 42.6637 38.5696C42.979 38.4702 43.3555 38.3935 43.793 38.3395C44.1254 38.2997 44.4222 38.2614 44.6836 38.2244C44.945 38.1847 45.1495 38.1236 45.2972 38.0412C45.4478 37.9588 45.5231 37.8338 45.5231 37.6662V37.3935C45.5231 36.9162 45.3725 36.5369 45.0714 36.2557C44.7702 35.9744 44.3555 35.8338 43.8271 35.8338C43.3583 35.8338 42.9634 35.9375 42.6424 36.1449C42.3242 36.3494 42.1012 36.6136 41.9734 36.9375L41.4833 36.7543C41.6083 36.4418 41.7887 36.1818 42.0245 35.9744C42.2631 35.767 42.5359 35.6122 42.8427 35.5099C43.1523 35.4077 43.4762 35.3565 43.8143 35.3565C44.1069 35.3565 44.3853 35.3977 44.6495 35.4801C44.9165 35.5625 45.1538 35.6875 45.3612 35.8551C45.5714 36.0227 45.7376 36.2372 45.8597 36.4986C45.9819 36.7571 46.043 37.0668 46.043 37.4276V42H45.5231V40.8196H45.4847C45.3711 41.0639 45.2148 41.2869 45.016 41.4886C44.82 41.6875 44.5827 41.8466 44.3043 41.9659C44.0288 42.0824 43.7177 42.1406 43.3711 42.1406ZM43.4222 41.6591C43.8313 41.6591 44.1935 41.5597 44.5089 41.3608C44.8271 41.1591 45.0756 40.8835 45.2546 40.5341C45.4336 40.1847 45.5231 39.7884 45.5231 39.3452V38.3821C45.4577 38.4389 45.3626 38.4901 45.2376 38.5355C45.1154 38.5781 44.9762 38.6165 44.82 38.6506C44.6665 38.6818 44.5046 38.7102 44.3342 38.7358C44.1665 38.7585 44.0032 38.7798 43.8441 38.7997C43.3668 38.8565 42.9776 38.9446 42.6765 39.0639C42.3782 39.1804 42.1594 39.3338 42.0202 39.5241C41.8839 39.7145 41.8157 39.9446 41.8157 40.2145C41.8157 40.6605 41.9691 41.0128 42.2759 41.2713C42.5827 41.5298 42.9648 41.6591 43.4222 41.6591ZM50.6772 42.1364C50.1204 42.1364 49.6303 41.9901 49.207 41.6974C48.7837 41.402 48.4528 40.9986 48.2141 40.4872C47.9783 39.9759 47.8604 39.3963 47.8604 38.7486C47.8604 38.1009 47.9798 37.5213 48.2184 37.0099C48.457 36.4986 48.788 36.0952 49.2113 35.7997C49.6346 35.5043 50.1218 35.3565 50.6729 35.3565C51.0877 35.3565 51.4656 35.4418 51.8065 35.6122C52.1502 35.7827 52.4343 36.0199 52.6587 36.3239C52.886 36.6278 53.0309 36.9801 53.0934 37.3807H52.565C52.4798 36.9375 52.2667 36.571 51.9258 36.2812C51.5877 35.9886 51.1715 35.8423 50.6772 35.8423C50.234 35.8423 49.8391 35.9673 49.4925 36.2173C49.146 36.4645 48.8732 36.8068 48.6744 37.2443C48.4755 37.679 48.3761 38.1776 48.3761 38.7401C48.3761 39.294 48.4727 39.7912 48.6658 40.2315C48.859 40.669 49.1289 41.0156 49.4755 41.2713C49.8221 41.527 50.2227 41.6548 50.6772 41.6548C50.9982 41.6548 51.2908 41.5909 51.555 41.4631C51.8221 41.3352 52.0451 41.1534 52.2241 40.9176C52.4031 40.6818 52.521 40.4062 52.5778 40.0909H53.1062C53.0437 40.4943 52.9016 40.8494 52.68 41.1562C52.4585 41.4631 52.1758 41.7031 51.832 41.8764C51.4883 42.0497 51.1033 42.1364 50.6772 42.1364ZM55.3988 37.7557V42H54.8789V33.2727H55.3988V36.4901H55.4499C55.6033 36.1491 55.8477 35.8778 56.1829 35.6761C56.521 35.4716 56.9258 35.3693 57.3974 35.3693C57.8377 35.3693 58.2255 35.4631 58.5607 35.6506C58.896 35.8352 59.1573 36.1009 59.3448 36.4474C59.5352 36.7912 59.6303 37.2031 59.6303 37.6832V42H59.1147V37.7045C59.1147 37.1449 58.9485 36.696 58.6161 36.358C58.2837 36.0199 57.8448 35.8509 57.2994 35.8509C56.9329 35.8509 56.6062 35.9304 56.3192 36.0895C56.0323 36.2486 55.8065 36.4716 55.6417 36.7585C55.4798 37.0426 55.3988 37.375 55.3988 37.7557ZM34.3146 57H31.8942V48.2727H34.5021C35.3203 48.2727 36.0206 48.446 36.603 48.7926C37.1854 49.1392 37.6314 49.6364 37.9411 50.2841C38.2536 50.929 38.4084 51.7031 38.4055 52.6065C38.4027 53.5298 38.2408 54.3196 37.9197 54.9759C37.5987 55.6293 37.1342 56.1307 36.5263 56.4801C35.9183 56.8267 35.1811 57 34.3146 57ZM32.4268 56.5057H34.2933C35.0717 56.5057 35.728 56.3509 36.2621 56.0412C36.7962 55.7287 37.1996 55.2812 37.4723 54.6989C37.7479 54.1165 37.8842 53.419 37.8814 52.6065C37.8814 51.8054 37.7493 51.1193 37.4851 50.5483C37.2209 49.9744 36.8359 49.5341 36.3303 49.2273C35.8274 48.9205 35.2109 48.767 34.4808 48.767H32.4268V56.5057ZM44.494 54.6776V50.4545H45.0138V57H44.494V55.9389H44.4513C44.2979 56.277 44.0494 56.5526 43.7056 56.7656C43.3647 56.9787 42.9613 57.0852 42.4954 57.0852C42.0664 57.0852 41.6871 56.9915 41.3576 56.804C41.0281 56.6165 40.7695 56.3509 40.582 56.0071C40.3945 55.6605 40.3008 55.2486 40.3008 54.7713V50.4545H40.8207V54.75C40.8207 55.2955 40.9854 55.7372 41.315 56.0753C41.6474 56.4105 42.0763 56.5781 42.6019 56.5781C42.9428 56.5781 43.2567 56.5014 43.5437 56.348C43.8306 56.1946 44.0607 55.9759 44.234 55.6918C44.4073 55.4048 44.494 55.0668 44.494 54.6776ZM51.3271 51.8651L50.8455 51.9929C50.7688 51.7543 50.6594 51.5483 50.5174 51.375C50.3754 51.2017 50.1964 51.0682 49.9805 50.9744C49.7674 50.8778 49.5117 50.8295 49.2134 50.8295C48.7333 50.8295 48.3398 50.9489 48.033 51.1875C47.729 51.4261 47.5771 51.7372 47.5771 52.1207C47.5771 52.4332 47.6808 52.6918 47.8881 52.8963C48.0955 53.098 48.4123 53.2514 48.8384 53.3565L49.8441 53.608C50.3612 53.7358 50.7504 53.9432 51.0117 54.2301C51.2731 54.5142 51.4038 54.8679 51.4038 55.2912C51.4038 55.652 51.3058 55.9716 51.1097 56.25C50.9137 56.5284 50.6424 56.7457 50.2958 56.902C49.9521 57.0582 49.5515 57.1364 49.0941 57.1364C48.4833 57.1364 47.9819 56.9943 47.5898 56.7102C47.1978 56.4233 46.9464 56.0128 46.8356 55.4787L47.3342 55.3509C47.4279 55.777 47.6225 56.1023 47.918 56.3267C48.2163 56.5483 48.6069 56.6591 49.0898 56.6591C49.6239 56.6591 50.0543 56.5327 50.381 56.2798C50.7106 56.027 50.8754 55.7031 50.8754 55.3082C50.8754 55.0071 50.7788 54.7528 50.5856 54.5455C50.3924 54.3381 50.0998 54.1861 49.7077 54.0895L48.6637 53.8338C48.1296 53.7031 47.729 53.4943 47.462 53.2074C47.195 52.9176 47.0614 52.5611 47.0614 52.1378C47.0614 51.7855 47.1538 51.4759 47.3384 51.2088C47.5231 50.9418 47.7773 50.733 48.1012 50.5824C48.4251 50.4318 48.7958 50.3565 49.2134 50.3565C49.7674 50.3565 50.2191 50.4872 50.5685 50.7486C50.918 51.0099 51.1708 51.3821 51.3271 51.8651ZM55.517 50.4545V50.919H52.6577V50.4545H55.517ZM53.625 48.8864H54.1406V55.4531C54.1406 55.7202 54.1918 55.9389 54.294 56.1094C54.3991 56.277 54.5355 56.402 54.7031 56.4844C54.8736 56.5639 55.0554 56.6037 55.2486 56.6037C55.3423 56.6037 55.4233 56.5966 55.4915 56.5824C55.5625 56.5682 55.6293 56.5497 55.6918 56.527L55.8196 57C55.7401 57.0284 55.652 57.0526 55.5554 57.0724C55.4588 57.0952 55.3452 57.1065 55.2145 57.1065C54.9418 57.1065 54.6832 57.0455 54.4389 56.9233C54.1974 56.8011 54.0014 56.6236 53.8509 56.3906C53.7003 56.1577 53.625 55.8764 53.625 55.5469V48.8864Z" fill="black"/>
</svg>
