<svg width="87" height="89" viewBox="0 0 87 89" fill="none" xmlns="http://www.w3.org/2000/svg">
<rect width="87" height="89" rx="15" fill="#E8DAD5"/>
<rect x="0.5" y="0.5" width="86" height="88" rx="14.5" stroke="black" stroke-opacity="0.06"/>
<path d="M9.63246 42V33.2727H12.3214C12.8725 33.2727 13.3469 33.3807 13.7447 33.5966C14.1424 33.8125 14.4478 34.1122 14.6609 34.4957C14.8739 34.8764 14.9805 35.3196 14.9805 35.8253C14.9805 36.3253 14.8739 36.7656 14.6609 37.1463C14.4478 37.5241 14.1424 37.8196 13.7447 38.0327C13.3498 38.2457 12.8768 38.3523 12.3256 38.3523H9.91797V37.8537H12.3129C12.7617 37.8537 13.1452 37.7699 13.4634 37.6023C13.7816 37.4347 14.0259 37.2003 14.1964 36.8991C14.3668 36.5952 14.4521 36.2372 14.4521 35.8253C14.4521 35.4105 14.3668 35.0497 14.1964 34.7429C14.0259 34.4332 13.7802 34.1932 13.4592 34.0227C13.141 33.8523 12.7575 33.767 12.3086 33.767H10.1651V42H9.63246ZM13.2163 38.0455L15.364 42H14.7504L12.6154 38.0455H13.2163ZM18.6602 42.1406C18.2823 42.1406 17.9357 42.0653 17.6204 41.9148C17.3079 41.7642 17.0565 41.544 16.8661 41.2543C16.6786 40.9645 16.5849 40.6122 16.5849 40.1974C16.5849 39.9247 16.6332 39.6847 16.7298 39.4773C16.8263 39.2699 16.9755 39.0909 17.1772 38.9403C17.3789 38.7898 17.6374 38.6662 17.9528 38.5696C18.2681 38.4702 18.6445 38.3935 19.082 38.3395C19.4144 38.2997 19.7113 38.2614 19.9727 38.2244C20.234 38.1847 20.4386 38.1236 20.5863 38.0412C20.7369 37.9588 20.8121 37.8338 20.8121 37.6662V37.3935C20.8121 36.9162 20.6616 36.5369 20.3604 36.2557C20.0593 35.9744 19.6445 35.8338 19.1161 35.8338C18.6474 35.8338 18.2525 35.9375 17.9315 36.1449C17.6133 36.3494 17.3903 36.6136 17.2624 36.9375L16.7724 36.7543C16.8974 36.4418 17.0778 36.1818 17.3136 35.9744C17.5522 35.767 17.8249 35.6122 18.1317 35.5099C18.4414 35.4077 18.7653 35.3565 19.1033 35.3565C19.396 35.3565 19.6744 35.3977 19.9386 35.4801C20.2056 35.5625 20.4428 35.6875 20.6502 35.8551C20.8604 36.0227 21.0266 36.2372 21.1488 36.4986C21.271 36.7571 21.332 37.0668 21.332 37.4276V42H20.8121V40.8196H20.7738C20.6602 41.0639 20.5039 41.2869 20.305 41.4886C20.109 41.6875 19.8718 41.8466 19.5934 41.9659C19.3178 42.0824 19.0067 42.1406 18.6602 42.1406ZM18.7113 41.6591C19.1204 41.6591 19.4826 41.5597 19.7979 41.3608C20.1161 41.1591 20.3647 40.8835 20.5437 40.5341C20.7227 40.1847 20.8121 39.7884 20.8121 39.3452V38.3821C20.7468 38.4389 20.6516 38.4901 20.5266 38.5355C20.4045 38.5781 20.2653 38.6165 20.109 38.6506C19.9556 38.6818 19.7937 38.7102 19.6232 38.7358C19.4556 38.7585 19.2923 38.7798 19.1332 38.7997C18.6559 38.8565 18.2667 38.9446 17.9656 39.0639C17.6673 39.1804 17.4485 39.3338 17.3093 39.5241C17.1729 39.7145 17.1048 39.9446 17.1048 40.2145C17.1048 40.6605 17.2582 41.0128 17.565 41.2713C17.8718 41.5298 18.2539 41.6591 18.7113 41.6591ZM23.5373 42V35.4545H24.0529V42H23.5373ZM23.7972 34.2955C23.6836 34.2955 23.5842 34.2557 23.4989 34.1761C23.4165 34.0966 23.3754 34 23.3754 33.8864C23.3754 33.7727 23.4165 33.6761 23.4989 33.5966C23.5813 33.517 23.6808 33.4773 23.7972 33.4773C23.9109 33.4773 24.0089 33.517 24.0913 33.5966C24.1765 33.6761 24.2191 33.7727 24.2191 33.8864C24.2191 34 24.1779 34.0966 24.0955 34.1761C24.0131 34.2557 23.9137 34.2955 23.7972 34.2955ZM26.7504 37.7557V42H26.2305V35.4545H26.7376V36.4901H26.7887C26.9421 36.152 27.1879 35.8807 27.5259 35.6761C27.864 35.4716 28.266 35.3693 28.7319 35.3693C29.1722 35.3693 29.5586 35.4631 29.891 35.6506C30.2262 35.8381 30.4876 36.1051 30.6751 36.4517C30.8654 36.7955 30.9606 37.206 30.9606 37.6832V42H30.4407V37.7045C30.4407 37.1477 30.2745 36.7003 29.9421 36.3622C29.6126 36.0213 29.1765 35.8509 28.6339 35.8509C28.2702 35.8509 27.9464 35.9304 27.6623 36.0895C27.3782 36.2486 27.1552 36.4716 26.9933 36.7585C26.8313 37.0426 26.7504 37.375 26.7504 37.7557ZM35.3668 42.1364C34.8413 42.1364 34.3825 41.9915 33.9904 41.7017C33.5984 41.4119 33.2944 41.0128 33.0785 40.5043C32.8654 39.9929 32.7589 39.4062 32.7589 38.7443C32.7589 38.0881 32.8668 37.5057 33.0827 36.9972C33.3015 36.4858 33.6069 36.0852 33.9989 35.7955C34.391 35.5028 34.8484 35.3565 35.3711 35.3565C35.7461 35.3565 36.0714 35.429 36.3469 35.5739C36.6254 35.7159 36.8583 35.9048 37.0458 36.1406C37.2362 36.3764 37.381 36.6349 37.4805 36.9162H37.5316V33.2727H38.0472V42H37.5444V40.5724H37.4805C37.3754 40.8537 37.229 41.1136 37.0415 41.3523C36.854 41.5881 36.6211 41.7784 36.3427 41.9233C36.0643 42.0653 35.739 42.1364 35.3668 42.1364ZM35.4137 41.6548C35.8569 41.6548 36.2362 41.5284 36.5515 41.2756C36.8697 41.0199 37.1126 40.6733 37.2802 40.2358C37.4506 39.7955 37.5359 39.2969 37.5359 38.7401C37.5359 38.1832 37.4506 37.6875 37.2802 37.2528C37.1126 36.8153 36.8697 36.4716 36.5515 36.2216C36.2362 35.9687 35.8569 35.8423 35.4137 35.8423C34.9648 35.8423 34.5799 35.9702 34.2589 36.2259C33.9407 36.4787 33.6964 36.8239 33.5259 37.2614C33.3583 37.6989 33.2745 38.1918 33.2745 38.7401C33.2745 39.2884 33.3583 39.7827 33.5259 40.223C33.6964 40.6634 33.9407 41.0128 34.2589 41.2713C34.5799 41.527 34.9648 41.6548 35.4137 41.6548ZM40.3867 42V35.4545H40.8938V36.4773H40.9407C41.0827 36.142 41.3228 35.8736 41.6609 35.6719C41.9989 35.4673 42.3839 35.3651 42.8157 35.3651C42.8612 35.3651 42.9066 35.3651 42.9521 35.3651C42.9975 35.3651 43.0401 35.3665 43.0799 35.3693V35.8935C43.0458 35.8906 43.0046 35.8864 42.9563 35.8807C42.9109 35.8722 42.854 35.8679 42.7859 35.8679C42.4222 35.8679 42.0984 35.946 41.8143 36.1023C41.533 36.2585 41.3114 36.4744 41.1495 36.75C40.9876 37.0227 40.9066 37.3352 40.9066 37.6875V42H40.3867ZM46.7106 42.1364C46.1708 42.1364 45.6907 41.9915 45.2702 41.7017C44.8498 41.4091 44.5188 41.0071 44.2773 40.4957C44.0359 39.9844 43.9151 39.402 43.9151 38.7486C43.9151 38.0923 44.0359 37.5099 44.2773 37.0014C44.5188 36.4901 44.8498 36.0881 45.2702 35.7955C45.6907 35.5028 46.1708 35.3565 46.7106 35.3565C47.2504 35.3565 47.7305 35.5028 48.1509 35.7955C48.5714 36.0881 48.9023 36.4901 49.1438 37.0014C49.3853 37.5128 49.506 38.0952 49.506 38.7486C49.506 39.402 49.3853 39.9844 49.1438 40.4957C48.9023 41.0071 48.5714 41.4091 48.1509 41.7017C47.7305 41.9915 47.2504 42.1364 46.7106 42.1364ZM46.7106 41.6548C47.168 41.6548 47.5671 41.5256 47.908 41.267C48.2518 41.0085 48.5174 40.6591 48.7049 40.2188C48.8952 39.7784 48.9904 39.2884 48.9904 38.7486C48.9904 38.2088 48.8952 37.7202 48.7049 37.2827C48.5146 36.8423 48.2489 36.4929 47.908 36.2344C47.5671 35.973 47.168 35.8423 46.7106 35.8423C46.2532 35.8423 45.854 35.973 45.5131 36.2344C45.1722 36.4929 44.9066 36.8423 44.7163 37.2827C44.5259 37.7202 44.4308 38.2088 44.4308 38.7486C44.4308 39.2884 44.5245 39.7784 44.712 40.2188C44.9023 40.6591 45.168 41.0085 45.5089 41.267C45.8526 41.5256 46.2532 41.6548 46.7106 41.6548ZM51.2969 44.4545V35.4545H51.804V36.9162H51.8679C51.9702 36.6349 52.1136 36.3764 52.2983 36.1406C52.4858 35.9048 52.7173 35.7159 52.9929 35.5739C53.2713 35.429 53.598 35.3565 53.973 35.3565C54.5014 35.3565 54.9616 35.5014 55.3537 35.7912C55.7457 36.081 56.0497 36.4815 56.2656 36.9929C56.4815 37.5014 56.5895 38.0852 56.5895 38.7443C56.5895 39.4034 56.4801 39.9886 56.2614 40.5C56.0455 41.0085 55.7415 41.4091 55.3494 41.7017C54.9602 41.9915 54.5043 42.1364 53.9815 42.1364C53.6094 42.1364 53.2827 42.0653 53.0014 41.9233C52.723 41.7812 52.4886 41.5923 52.2983 41.3565C52.1108 41.1179 51.9673 40.8565 51.8679 40.5724H51.8168V44.4545H51.2969ZM51.8082 38.7401C51.8082 39.2969 51.8935 39.7955 52.0639 40.2358C52.2344 40.6733 52.4787 41.0199 52.7969 41.2756C53.1151 41.5284 53.4943 41.6548 53.9347 41.6548C54.3807 41.6548 54.7628 41.527 55.081 41.2713C55.402 41.0128 55.6463 40.6634 55.8139 40.223C55.9844 39.7827 56.0696 39.2884 56.0696 38.7401C56.0696 38.1918 55.9858 37.6989 55.8182 37.2614C55.6506 36.8239 55.4077 36.4787 55.0895 36.2259C54.7713 35.9702 54.3864 35.8423 53.9347 35.8423C53.4886 35.8423 53.1065 35.9687 52.7884 36.2216C52.473 36.4716 52.2301 36.8153 52.0597 37.2528C51.892 37.6875 51.8082 38.1832 51.8082 38.7401ZM62.5458 36.8651L62.0643 36.9929C61.9876 36.7543 61.8782 36.5483 61.7362 36.375C61.5941 36.2017 61.4151 36.0682 61.1992 35.9744C60.9862 35.8778 60.7305 35.8295 60.4322 35.8295C59.9521 35.8295 59.5586 35.9489 59.2518 36.1875C58.9478 36.4261 58.7958 36.7372 58.7958 37.1207C58.7958 37.4332 58.8995 37.6918 59.1069 37.8963C59.3143 38.098 59.631 38.2514 60.0572 38.3565L61.0629 38.608C61.5799 38.7358 61.9691 38.9432 62.2305 39.2301C62.4918 39.5142 62.6225 39.8679 62.6225 40.2912C62.6225 40.652 62.5245 40.9716 62.3285 41.25C62.1325 41.5284 61.8612 41.7457 61.5146 41.902C61.1708 42.0582 60.7702 42.1364 60.3129 42.1364C59.7021 42.1364 59.2006 41.9943 58.8086 41.7102C58.4165 41.4233 58.1651 41.0128 58.0543 40.4787L58.5529 40.3509C58.6467 40.777 58.8413 41.1023 59.1367 41.3267C59.435 41.5483 59.8256 41.6591 60.3086 41.6591C60.8427 41.6591 61.2731 41.5327 61.5998 41.2798C61.9293 41.027 62.0941 40.7031 62.0941 40.3082C62.0941 40.0071 61.9975 39.7528 61.8043 39.5455C61.6112 39.3381 61.3185 39.1861 60.9265 39.0895L59.8825 38.8338C59.3484 38.7031 58.9478 38.4943 58.6808 38.2074C58.4137 37.9176 58.2802 37.5611 58.2802 37.1378C58.2802 36.7855 58.3725 36.4759 58.5572 36.2088C58.7418 35.9418 58.9961 35.733 59.32 35.5824C59.6438 35.4318 60.0146 35.3565 60.4322 35.3565C60.9862 35.3565 61.4379 35.4872 61.7873 35.7486C62.1367 36.0099 62.3896 36.3821 62.5458 36.8651ZM70.2301 42.1364C69.6903 42.1364 69.2102 41.9915 68.7898 41.7017C68.3693 41.4091 68.0384 41.0071 67.7969 40.4957C67.5554 39.9844 67.4347 39.402 67.4347 38.7486C67.4347 38.0923 67.5554 37.5099 67.7969 37.0014C68.0384 36.4901 68.3693 36.0881 68.7898 35.7955C69.2102 35.5028 69.6903 35.3565 70.2301 35.3565C70.7699 35.3565 71.25 35.5028 71.6705 35.7955C72.0909 36.0881 72.4219 36.4901 72.6634 37.0014C72.9048 37.5128 73.0256 38.0952 73.0256 38.7486C73.0256 39.402 72.9048 39.9844 72.6634 40.4957C72.4219 41.0071 72.0909 41.4091 71.6705 41.7017C71.25 41.9915 70.7699 42.1364 70.2301 42.1364ZM70.2301 41.6548C70.6875 41.6548 71.0866 41.5256 71.4276 41.267C71.7713 41.0085 72.0369 40.6591 72.2244 40.2188C72.4148 39.7784 72.5099 39.2884 72.5099 38.7486C72.5099 38.2088 72.4148 37.7202 72.2244 37.2827C72.0341 36.8423 71.7685 36.4929 71.4276 36.2344C71.0866 35.973 70.6875 35.8423 70.2301 35.8423C69.7727 35.8423 69.3736 35.973 69.0327 36.2344C68.6918 36.4929 68.4261 36.8423 68.2358 37.2827C68.0455 37.7202 67.9503 38.2088 67.9503 38.7486C67.9503 39.2884 68.044 39.7784 68.2315 40.2188C68.4219 40.6591 68.6875 41.0085 69.0284 41.267C69.3722 41.5256 69.7727 41.6548 70.2301 41.6548ZM75.3363 37.7557V42H74.8164V35.4545H75.3235V36.4901H75.3746C75.5281 36.152 75.7738 35.8807 76.1119 35.6761C76.4499 35.4716 76.8519 35.3693 77.3178 35.3693C77.7582 35.3693 78.1445 35.4631 78.4769 35.6506C78.8121 35.8381 79.0735 36.1051 79.261 36.4517C79.4513 36.7955 79.5465 37.206 79.5465 37.6832V42H79.0266V37.7045C79.0266 37.1477 78.8604 36.7003 78.5281 36.3622C78.1985 36.0213 77.7624 35.8509 77.2198 35.8509C76.8562 35.8509 76.5323 35.9304 76.2482 36.0895C75.9641 36.2486 75.7411 36.4716 75.5792 36.7585C75.4173 37.0426 75.3363 37.375 75.3363 37.7557ZM29.0446 57V48.2727H31.7335C32.2846 48.2727 32.7591 48.3807 33.1568 48.5966C33.5545 48.8125 33.8599 49.1122 34.073 49.4957C34.286 49.8764 34.3926 50.3196 34.3926 50.8253C34.3926 51.3253 34.286 51.7656 34.073 52.1463C33.8599 52.5241 33.5545 52.8196 33.1568 53.0327C32.7619 53.2457 32.2889 53.3523 31.7377 53.3523H29.3301V52.8537H31.725C32.1738 52.8537 32.5574 52.7699 32.8755 52.6023C33.1937 52.4347 33.438 52.2003 33.6085 51.8991C33.7789 51.5952 33.8642 51.2372 33.8642 50.8253C33.8642 50.4105 33.7789 50.0497 33.6085 49.7429C33.438 49.4332 33.1923 49.1932 32.8713 49.0227C32.5531 48.8523 32.1696 48.767 31.7207 48.767H29.5772V57H29.0446ZM32.6284 53.0455L34.7761 57H34.1625L32.0275 53.0455H32.6284ZM38.7008 57.1364C38.161 57.1364 37.6809 56.9915 37.2605 56.7017C36.84 56.4091 36.5091 56.0071 36.2676 55.4957C36.0261 54.9844 35.9054 54.402 35.9054 53.7486C35.9054 53.0923 36.0261 52.5099 36.2676 52.0014C36.5091 51.4901 36.84 51.0881 37.2605 50.7955C37.6809 50.5028 38.161 50.3565 38.7008 50.3565C39.2406 50.3565 39.7207 50.5028 40.1412 50.7955C40.5616 51.0881 40.8926 51.4901 41.1341 52.0014C41.3755 52.5128 41.4963 53.0952 41.4963 53.7486C41.4963 54.402 41.3755 54.9844 41.1341 55.4957C40.8926 56.0071 40.5616 56.4091 40.1412 56.7017C39.7207 56.9915 39.2406 57.1364 38.7008 57.1364ZM38.7008 56.6548C39.1582 56.6548 39.5574 56.5256 39.8983 56.267C40.242 56.0085 40.5076 55.6591 40.6951 55.2188C40.8855 54.7784 40.9806 54.2884 40.9806 53.7486C40.9806 53.2088 40.8855 52.7202 40.6951 52.2827C40.5048 51.8423 40.2392 51.4929 39.8983 51.2344C39.5574 50.973 39.1582 50.8423 38.7008 50.8423C38.2434 50.8423 37.8443 50.973 37.5034 51.2344C37.1625 51.4929 36.8968 51.8423 36.7065 52.2827C36.5162 52.7202 36.421 53.2088 36.421 53.7486C36.421 54.2884 36.5147 54.7784 36.7022 55.2188C36.8926 55.6591 37.1582 56.0085 37.4991 56.267C37.8429 56.5256 38.2434 56.6548 38.7008 56.6548ZM47.4462 51.8651L46.9647 51.9929C46.888 51.7543 46.7786 51.5483 46.6365 51.375C46.4945 51.2017 46.3155 51.0682 46.0996 50.9744C45.8865 50.8778 45.6309 50.8295 45.3326 50.8295C44.8525 50.8295 44.459 50.9489 44.1522 51.1875C43.8482 51.4261 43.6962 51.7372 43.6962 52.1207C43.6962 52.4332 43.7999 52.6918 44.0073 52.8963C44.2147 53.098 44.5314 53.2514 44.9576 53.3565L45.9632 53.608C46.4803 53.7358 46.8695 53.9432 47.1309 54.2301C47.3922 54.5142 47.5229 54.8679 47.5229 55.2912C47.5229 55.652 47.4249 55.9716 47.2289 56.25C47.0328 56.5284 46.7615 56.7457 46.415 56.902C46.0712 57.0582 45.6706 57.1364 45.2132 57.1364C44.6025 57.1364 44.101 56.9943 43.709 56.7102C43.3169 56.4233 43.0655 56.0128 42.9547 55.4787L43.4533 55.3509C43.5471 55.777 43.7417 56.1023 44.0371 56.3267C44.3354 56.5483 44.726 56.6591 45.209 56.6591C45.7431 56.6591 46.1735 56.5327 46.5002 56.2798C46.8297 56.027 46.9945 55.7031 46.9945 55.3082C46.9945 55.0071 46.8979 54.7528 46.7047 54.5455C46.5115 54.3381 46.2189 54.1861 45.8269 54.0895L44.7828 53.8338C44.2488 53.7031 43.8482 53.4943 43.5811 53.2074C43.3141 52.9176 43.1806 52.5611 43.1806 52.1378C43.1806 51.7855 43.2729 51.4759 43.4576 51.2088C43.6422 50.9418 43.8965 50.733 44.2203 50.5824C44.5442 50.4318 44.915 50.3565 45.3326 50.3565C45.8865 50.3565 46.3382 50.4872 46.6877 50.7486C47.0371 51.0099 47.29 51.3821 47.4462 51.8651ZM51.8748 57.1364C51.2839 57.1364 50.7697 56.9901 50.3322 56.6974C49.8947 56.4048 49.5566 56.0043 49.318 55.4957C49.0794 54.9872 48.96 54.4077 48.96 53.7571C48.96 53.1037 49.0794 52.5213 49.318 52.0099C49.5595 51.4986 49.8904 51.0952 50.3109 50.7997C50.7314 50.5043 51.2115 50.3565 51.7512 50.3565C52.1177 50.3565 52.4643 50.4304 52.791 50.5781C53.1206 50.723 53.4103 50.9332 53.6603 51.2088C53.9132 51.4844 54.1106 51.8168 54.2527 52.206C54.3976 52.5952 54.47 53.0327 54.47 53.5185V53.8423H49.2882V53.3693H53.9501C53.9501 52.8949 53.8535 52.4673 53.6603 52.0866C53.4672 51.706 53.2044 51.4034 52.872 51.179C52.5396 50.9545 52.166 50.8423 51.7512 50.8423C51.3166 50.8423 50.9288 50.9645 50.5879 51.2088C50.2498 51.4503 49.9814 51.777 49.7825 52.1889C49.5865 52.6009 49.4842 53.0611 49.4757 53.5696V53.7827C49.4757 54.3281 49.5708 54.8182 49.7612 55.2528C49.9544 55.6847 50.2299 56.027 50.5879 56.2798C50.9458 56.5298 51.3748 56.6548 51.8748 56.6548C52.2328 56.6548 52.5382 56.5952 52.791 56.4759C53.0467 56.3537 53.2555 56.206 53.4174 56.0327C53.5794 55.8594 53.7015 55.6918 53.7839 55.5298L54.2569 55.7216C54.1575 55.9403 54.0027 56.1591 53.7924 56.3778C53.585 56.5937 53.3208 56.7741 52.9998 56.919C52.6816 57.0639 52.3066 57.1364 51.8748 57.1364ZM60.4189 51.8651L59.9373 51.9929C59.8606 51.7543 59.7512 51.5483 59.6092 51.375C59.4672 51.2017 59.2882 51.0682 59.0723 50.9744C58.8592 50.8778 58.6035 50.8295 58.3052 50.8295C57.8251 50.8295 57.4316 50.9489 57.1248 51.1875C56.8208 51.4261 56.6689 51.7372 56.6689 52.1207C56.6689 52.4332 56.7725 52.6918 56.9799 52.8963C57.1873 53.098 57.5041 53.2514 57.9302 53.3565L58.9359 53.608C59.4529 53.7358 59.8422 53.9432 60.1035 54.2301C60.3649 54.5142 60.4956 54.8679 60.4956 55.2912C60.4956 55.652 60.3975 55.9716 60.2015 56.25C60.0055 56.5284 59.7342 56.7457 59.3876 56.902C59.0439 57.0582 58.6433 57.1364 58.1859 57.1364C57.5751 57.1364 57.0737 56.9943 56.6816 56.7102C56.2896 56.4233 56.0382 56.0128 55.9274 55.4787L56.426 55.3509C56.5197 55.777 56.7143 56.1023 57.0098 56.3267C57.3081 56.5483 57.6987 56.6591 58.1816 56.6591C58.7157 56.6591 59.1461 56.5327 59.4728 56.2798C59.8024 56.027 59.9672 55.7031 59.9672 55.3082C59.9672 55.0071 59.8706 54.7528 59.6774 54.5455C59.4842 54.3381 59.1916 54.1861 58.7995 54.0895L57.7555 53.8338C57.2214 53.7031 56.8208 53.4943 56.5538 53.2074C56.2868 52.9176 56.1532 52.5611 56.1532 52.1378C56.1532 51.7855 56.2456 51.4759 56.4302 51.2088C56.6149 50.9418 56.8691 50.733 57.193 50.5824C57.5169 50.4318 57.8876 50.3565 58.3052 50.3565C58.8592 50.3565 59.3109 50.4872 59.6603 50.7486C60.0098 51.0099 60.2626 51.3821 60.4189 51.8651Z" fill="black"/>
</svg>
