<svg width="643" height="399" viewBox="0 0 643 399" fill="none" xmlns="http://www.w3.org/2000/svg">
<path d="M115 82.2542L104.633 52.6343C102.311 45.9988 102.774 38.7056 105.918 32.4177L115 14.2542L122.711 32.2457C125.482 38.7117 125.893 45.9458 123.871 52.6838L115 82.2542ZM115 82.2542V106.254V133.254C115 144.3 123.954 153.254 135 153.254H184.5C195.822 153.254 205 144.076 205 132.754C205 121.432 195.844 112.254 184.522 112.254C164.973 112.254 133.721 112.254 101 112.254C75.421 112.254 52.7589 112.254 35.9897 112.254C19.4211 112.254 6 125.695 6 142.263C6 218.94 6 285.568 6 362.245C6 378.814 19.4315 392.254 36 392.254H172H175C191.569 392.254 205 378.823 205 362.254V326.254" stroke="black" stroke-width="12" stroke-linecap="round"/>
<path d="M107.488 287.75C107.488 290.907 108.384 293.382 110.176 295.174C112.053 296.881 114.528 297.734 117.6 297.734C122.293 297.734 126.219 296.027 129.376 292.614V271.75L120.288 274.054C111.755 276.358 107.488 280.923 107.488 287.75ZM138.592 304.518C136.373 304.518 134.453 303.921 132.832 302.726C131.211 301.446 130.144 299.697 129.632 297.478C125.365 302.171 120.544 304.518 115.168 304.518C109.877 304.518 105.653 303.025 102.496 300.038C99.3387 296.966 97.76 293.041 97.76 288.262C97.76 278.875 104.245 272.774 117.216 269.958L129.376 267.27V261.638C129.376 257.798 128.565 254.982 126.944 253.19C125.408 251.398 122.464 250.502 118.112 250.502C113.76 250.502 108.64 251.526 102.752 253.574L101.088 251.014C107.403 245.809 114.485 243.206 122.336 243.206C127.541 243.206 131.552 244.742 134.368 247.814C137.269 250.886 138.72 255.153 138.72 260.614V290.95C138.72 293.51 139.019 295.302 139.616 296.326C140.213 297.35 141.152 297.862 142.432 297.862C143.797 297.862 145.461 297.649 147.424 297.222L148.192 298.758C145.291 302.598 142.091 304.518 138.592 304.518ZM210.38 262.278V297.222C213.111 298.246 216.097 298.886 219.34 299.142C219.34 300.337 219.255 301.617 219.084 302.982H192.972C192.887 301.958 192.929 300.678 193.1 299.142C196.172 298.801 198.263 298.203 199.372 297.35C200.567 296.497 201.164 295.003 201.164 292.87V263.046C201.164 258.865 200.183 255.665 198.22 253.446C196.257 251.227 193.527 250.118 190.028 250.118C182.604 250.118 177.057 254.555 173.388 263.43V297.222C175.777 298.246 178.679 298.886 182.092 299.142C182.092 300.678 181.964 301.958 181.708 302.982H155.468C155.297 301.702 155.383 300.422 155.724 299.142C158.881 298.801 161.057 298.203 162.252 297.35C163.532 296.497 164.172 295.003 164.172 292.87V252.166C161.697 252.081 159.777 252.038 158.412 252.038C157.047 252.038 155.98 252.038 155.212 252.038C155.212 251.014 155.383 249.905 155.724 248.71C161.356 246.491 166.903 244.913 172.364 243.974C172.876 247.217 173.217 251.398 173.388 256.518C177.74 247.643 184.353 243.206 193.228 243.206C198.263 243.206 202.359 244.827 205.516 248.07C208.759 251.313 210.38 256.049 210.38 262.278ZM258.858 249.35C244.607 249.35 237.482 257.371 237.482 273.414C237.482 281.777 238.975 287.963 241.962 291.974C245.034 295.899 249.215 297.862 254.506 297.862C259.797 297.862 264.149 296.326 267.562 293.254V250.246C265.087 249.649 262.186 249.35 258.858 249.35ZM276.65 304.518C274.602 304.518 272.767 303.921 271.146 302.726C269.61 301.531 268.543 299.91 267.946 297.862C263.509 302.299 258.005 304.518 251.434 304.518C244.949 304.518 239.402 301.958 234.794 296.838C230.186 291.718 227.882 284.337 227.882 274.694C227.882 264.966 231.125 257.286 237.61 251.654C244.181 246.022 252.245 243.206 261.802 243.206C263.765 243.206 265.685 243.334 267.562 243.59V219.782C266.709 219.697 265.514 219.654 263.978 219.654C262.442 219.654 260.65 219.697 258.602 219.782C258.602 218.331 258.773 217.137 259.114 216.198C265.002 213.894 270.89 212.315 276.778 211.462V290.95C276.778 293.51 277.077 295.302 277.674 296.326C278.271 297.35 279.167 297.862 280.362 297.862C281.642 297.862 283.349 297.649 285.482 297.222L286.378 298.758C283.306 302.598 280.063 304.518 276.65 304.518ZM303.297 292.87V219.782C302.358 219.697 301.164 219.654 299.713 219.654C298.262 219.654 296.47 219.697 294.337 219.782C294.337 218.758 294.508 217.563 294.849 216.198C300.481 213.894 306.369 212.315 312.513 211.462V297.222C314.902 298.246 317.804 298.886 321.217 299.142C321.217 300.678 321.089 301.958 320.833 302.982H294.593C294.422 301.702 294.508 300.422 294.849 299.142C298.006 298.801 300.182 298.203 301.377 297.35C302.657 296.497 303.297 295.003 303.297 292.87ZM371.44 264.582C371.355 259.035 370.032 254.939 367.472 252.294C364.912 249.649 361.797 248.326 358.128 248.326C354.544 248.326 351.173 249.777 348.016 252.678C344.859 255.579 342.811 259.931 341.872 265.734L356.72 264.71L371.44 264.582ZM341.232 272.902C341.232 280.838 342.853 286.982 346.096 291.334C349.424 295.601 354.245 297.734 360.56 297.734C366.875 297.734 373.104 295.686 379.248 291.59L380.4 293.894C374.171 300.977 366.533 304.518 357.488 304.518C351.088 304.518 345.285 302.171 340.08 297.478C337.435 295.089 335.301 291.974 333.68 288.134C332.144 284.209 331.376 279.814 331.376 274.95C331.376 264.966 334.277 257.201 340.08 251.654C345.883 246.022 352.112 243.206 358.768 243.206C365.424 243.206 370.8 245.339 374.896 249.606C379.077 253.787 381.168 259.803 381.168 267.654C380.656 268.593 380.187 269.361 379.76 269.958H341.36C341.275 270.555 341.232 271.537 341.232 272.902ZM480.074 244.742C480.159 245.169 480.202 245.723 480.202 246.406C480.202 247.089 480.031 247.857 479.69 248.71C477.215 249.137 475.338 249.649 474.058 250.246L452.938 303.75H449.226L434.122 261.894L417.226 303.75H413.514L394.57 250.118C392.778 249.265 390.901 248.795 388.938 248.71C388.767 247.515 388.682 246.619 388.682 246.022C388.682 245.425 388.725 244.998 388.81 244.742H413.13C413.386 246.022 413.514 247.345 413.514 248.71C410.101 249.051 407.925 249.649 406.986 250.502C406.133 251.355 405.706 252.166 405.706 252.934C405.706 253.702 405.834 254.427 406.09 255.11L416.202 284.678C416.885 286.555 417.397 288.475 417.738 290.438H417.994L434.506 247.302H438.218L451.402 284.678C452.17 286.641 452.725 288.561 453.066 290.438H453.322L465.866 256.39C466.378 254.939 466.634 253.745 466.634 252.806C466.634 251.782 466.207 250.929 465.354 250.246C464.586 249.478 462.239 248.966 458.314 248.71C458.143 247.003 458.143 245.681 458.314 244.742H480.074ZM504.263 230.406C502.983 231.771 501.404 232.454 499.527 232.454C497.65 232.454 496.028 231.771 494.663 230.406C493.298 229.041 492.615 227.419 492.615 225.542C492.615 223.665 493.298 222.043 494.663 220.678C496.028 219.313 497.65 218.63 499.527 218.63C501.404 218.63 502.983 219.313 504.263 220.678C505.628 221.958 506.311 223.579 506.311 225.542C506.311 227.419 505.628 229.041 504.263 230.406ZM495.047 292.87V252.294C493.682 252.209 492.231 252.166 490.695 252.166C489.244 252.166 487.708 252.209 486.087 252.294C486.087 251.441 486.258 250.246 486.599 248.71C492.572 246.491 498.46 244.913 504.263 243.974V297.222C506.652 298.246 509.554 298.886 512.967 299.142C512.967 300.678 512.839 301.958 512.583 302.982H486.343C486.172 301.702 486.258 300.422 486.599 299.142C489.756 298.801 491.932 298.203 493.127 297.35C494.407 296.497 495.047 295.003 495.047 292.87ZM571.251 295.174C564.595 301.403 557.427 304.518 549.747 304.518C542.152 304.518 535.795 301.83 530.675 296.454C525.64 290.993 523.123 283.697 523.123 274.566C523.123 265.35 525.896 257.841 531.443 252.038C536.99 246.15 544.115 243.206 552.819 243.206C559.646 243.206 565.406 244.87 570.099 248.198C570.099 252.635 569.715 257.243 568.947 262.022L566.259 261.638C566.259 257.542 564.936 254.342 562.291 252.038C559.646 249.649 556.232 248.454 552.051 248.454C546.334 248.454 541.726 250.758 538.227 255.366C534.814 259.889 533.107 265.99 533.107 273.67C533.107 281.35 534.771 287.409 538.099 291.846C541.512 296.283 546.078 298.502 551.795 298.502C557.512 298.502 563.443 296.71 569.587 293.126L571.251 295.174ZM588.422 292.87V219.782C587.483 219.697 586.289 219.654 584.838 219.654C583.387 219.654 581.595 219.697 579.462 219.782C579.462 218.758 579.633 217.563 579.974 216.198C585.606 213.894 591.494 212.315 597.638 211.462V274.95L622.726 250.758C619.825 250.161 617.051 249.179 614.406 247.814C614.406 246.534 614.534 245.51 614.79 244.742H640.262C640.262 246.278 640.134 247.601 639.878 248.71C634.673 248.71 630.406 250.331 627.078 253.574L611.206 268.55C612.742 269.233 614.321 270.641 615.942 272.774L630.022 291.59C632.155 294.406 634.075 296.326 635.782 297.35C637.574 298.374 639.921 298.971 642.822 299.142C642.907 300.166 642.737 301.446 642.31 302.982H627.206L607.366 276.358C606.598 275.334 605.915 274.651 605.318 274.31L597.638 281.606V297.222C600.027 298.246 602.929 298.886 606.342 299.142C606.342 300.678 606.214 301.958 605.958 302.982H579.718C579.547 301.702 579.633 300.422 579.974 299.142C583.131 298.801 585.307 298.203 586.502 297.35C587.782 296.497 588.422 295.003 588.422 292.87Z" fill="black"/>
</svg>
