<svg width="315" height="466" viewBox="0 0 315 466" fill="none" xmlns="http://www.w3.org/2000/svg">
<path d="M65.5 360.87C65.5 357.944 59.2922 230.178 58 171.37C132.442 182.937 176.035 182.842 257 171.37L247.5 360.87C247.5 378.87 65.5 376.37 65.5 360.87Z" fill="white" stroke="black" stroke-width="2"/>
<path d="M136.65 217.382C136.086 217.924 135.41 218.182 134.624 218.157C133.838 218.131 133.177 217.826 132.643 217.241C132.108 216.657 131.856 215.892 131.887 214.945C131.918 213.999 132.247 213.233 132.873 212.646C133.499 212.06 134.252 211.781 135.132 211.81C135.751 211.83 136.268 211.947 136.681 212.161C136.654 212.587 136.587 213.005 136.48 213.415C136.353 213.411 136.28 213.405 136.26 213.398C136.265 213.057 136.16 212.787 135.947 212.587C135.733 212.386 135.453 212.281 135.107 212.269C134.407 212.246 133.836 212.474 133.393 212.954C132.957 213.433 132.726 214.086 132.699 214.912C132.672 215.738 132.861 216.395 133.265 216.881C133.676 217.362 134.185 217.612 134.791 217.632C135.404 217.652 135.969 217.507 136.486 217.197L136.65 217.382ZM138.836 215.741L140.795 215.791L139.874 212.697L139.763 213.124L138.836 215.741ZM140.613 218.207C140.616 218.094 140.631 217.998 140.66 217.918C140.961 217.88 141.196 217.812 141.366 217.717L140.896 216.154L138.716 216.098L138.145 217.694C138.349 217.792 138.598 217.852 138.891 217.873C138.889 217.946 138.873 218.043 138.843 218.162L137.004 218.115C137.006 218.028 137.022 217.932 137.051 217.826C137.272 217.798 137.44 217.742 137.556 217.659C137.672 217.568 137.758 217.447 137.815 217.295L139.731 212.033C139.893 211.977 140.11 211.952 140.383 211.959L142.004 217.393C142.059 217.588 142.149 217.73 142.273 217.82C142.398 217.903 142.577 217.954 142.809 217.974C142.793 218.107 142.774 218.203 142.752 218.262L140.613 218.207ZM149.216 212.265C149.214 212.398 149.202 212.492 149.182 212.545C148.721 212.59 148.488 212.766 148.482 213.072L148.389 218.362L148.069 218.356L144.88 213.709L144.394 212.941L144.308 217.85C144.506 217.94 144.755 217.994 145.055 218.013C145.06 218.093 145.048 218.19 145.02 218.302L143.14 218.269C143.134 218.236 143.131 218.196 143.132 218.149C143.133 218.096 143.144 218.039 143.165 217.98C143.626 217.928 143.859 217.755 143.864 217.462L143.95 212.593C143.778 212.51 143.552 212.459 143.272 212.441C143.275 212.321 143.286 212.228 143.307 212.161L144.677 212.185L147.184 215.82L147.962 217.034L148.039 212.675C147.874 212.598 147.621 212.544 147.282 212.511C147.27 212.418 147.282 212.325 147.317 212.232L149.216 212.265ZM151.097 218.04L151.917 218.046C152.671 218.051 153.246 217.811 153.642 217.327C154.045 216.843 154.25 216.185 154.255 215.351C154.261 214.518 154.065 213.857 153.668 213.367C153.272 212.871 152.693 212.621 151.933 212.616L151.133 212.61L151.097 218.04ZM151.996 212.286C152.922 212.292 153.667 212.564 154.23 213.101C154.793 213.638 155.072 214.39 155.065 215.357C155.059 216.317 154.774 217.065 154.21 217.601C153.653 218.137 152.915 218.402 151.995 218.396L149.725 218.381C149.712 218.274 149.723 218.178 149.757 218.091C149.99 218.06 150.154 218.014 150.248 217.955C150.342 217.889 150.389 217.776 150.39 217.616L150.423 212.696C150.21 212.614 149.98 212.566 149.734 212.551C149.735 212.424 149.745 212.331 149.766 212.271L151.996 212.286ZM156.988 218.063L158.838 218.058C159.158 218.057 159.374 217.984 159.487 217.837C159.6 217.683 159.673 217.423 159.705 217.056C159.838 217.056 159.925 217.059 159.965 217.065C159.999 217.385 160.017 217.655 160.017 217.875C160.018 218.088 160.015 218.265 160.009 218.405L155.619 218.417C155.605 218.311 155.615 218.214 155.648 218.127C155.881 218.093 156.044 218.046 156.137 217.986C156.231 217.919 156.277 217.805 156.277 217.645L156.263 212.745C156.063 212.659 155.833 212.607 155.573 212.587C155.572 212.461 155.582 212.367 155.602 212.307L157.622 212.302C157.635 212.395 157.626 212.488 157.593 212.582C157.366 212.609 157.206 212.656 157.113 212.723C157.02 212.79 156.973 212.9 156.974 213.053L156.988 218.063ZM162.228 218.041L163.958 218.028C164.285 218.025 164.504 217.947 164.616 217.793C164.729 217.639 164.803 217.372 164.84 216.991C164.994 216.99 165.094 216.996 165.141 217.009C165.163 217.309 165.175 217.572 165.176 217.799C165.178 218.019 165.176 218.209 165.171 218.369L160.851 218.401C160.837 218.295 160.846 218.198 160.879 218.111C161.118 218.076 161.281 218.028 161.368 217.967C161.46 217.9 161.506 217.786 161.505 217.626L161.468 212.716C161.294 212.631 161.064 212.583 160.777 212.571C160.776 212.445 160.786 212.351 160.805 212.291L164.975 212.26C164.983 212.4 164.987 212.587 164.989 212.82C164.991 213.047 164.976 213.303 164.945 213.59C164.905 213.604 164.812 213.611 164.665 213.612C164.629 213.239 164.554 212.977 164.439 212.824C164.325 212.672 164.108 212.597 163.788 212.599L162.188 212.611L162.206 215.101L163.846 215.019L164.146 215.016L164.149 215.496L163.849 215.499L162.209 215.471L162.228 218.041ZM165.602 212.545C165.587 212.459 165.579 212.396 165.578 212.356C165.577 212.309 165.576 212.276 165.576 212.256L167.555 212.215C167.59 212.295 167.609 212.391 167.611 212.504C167.325 212.537 167.153 212.58 167.094 212.635C167.041 212.683 167.016 212.74 167.017 212.806C167.018 212.866 167.03 212.933 167.051 213.006L168.173 216.524C168.251 216.755 168.306 216.974 168.337 217.18L168.367 217.18L170.051 212.475L170.301 212.469L171.834 216.549C171.905 216.754 171.953 216.953 171.977 217.146L171.997 217.146L173.264 212.559C173.082 212.47 172.894 212.417 172.7 212.401C172.711 212.287 172.729 212.19 172.754 212.109L174.204 212.08C174.212 212.133 174.204 212.23 174.18 212.37C173.981 212.415 173.839 212.471 173.753 212.539C173.668 212.608 173.597 212.739 173.541 212.934L172 218.296L171.74 218.301L169.996 213.676L168.271 218.372L168.021 218.377L166.154 212.664C165.939 212.588 165.755 212.549 165.602 212.545ZM175.949 212.774L176.108 217.692C176.304 217.772 176.529 217.815 176.782 217.82C176.783 217.833 176.784 217.863 176.785 217.91C176.786 217.95 176.779 218.017 176.762 218.111L174.743 218.176C174.726 218.07 174.733 217.973 174.763 217.885C175.002 217.844 175.164 217.792 175.249 217.729C175.34 217.66 175.383 217.545 175.378 217.385L175.219 212.488C175.01 212.408 174.778 212.362 174.525 212.35C174.52 212.223 174.527 212.13 174.545 212.069L176.574 212.004C176.579 212.137 176.572 212.23 176.553 212.284C176.328 212.318 176.169 212.37 176.078 212.44C175.987 212.51 175.944 212.621 175.949 212.774ZM182.498 217.201C181.97 217.779 181.313 218.08 180.527 218.106C179.741 218.132 179.062 217.871 178.49 217.323C177.918 216.775 177.617 216.028 177.585 215.082C177.554 214.136 177.832 213.35 178.418 212.723C179.004 212.097 179.737 211.769 180.617 211.74C181.236 211.72 181.759 211.802 182.186 211.988C182.186 212.415 182.147 212.837 182.067 213.253C181.941 213.257 181.867 213.256 181.847 213.25C181.829 212.911 181.707 212.648 181.481 212.462C181.255 212.276 180.968 212.189 180.622 212.2C179.922 212.223 179.367 212.488 178.957 212.996C178.554 213.503 178.366 214.169 178.393 214.995C178.42 215.822 178.652 216.464 179.087 216.923C179.529 217.376 180.053 217.592 180.659 217.572C181.272 217.551 181.827 217.37 182.322 217.026L182.498 217.201ZM183.912 217.092L183.695 212.197C183.484 212.12 183.252 212.077 182.998 212.068C182.993 211.942 182.998 211.848 183.016 211.787L185.044 211.697C185.05 211.83 185.044 211.924 185.026 211.978C184.801 212.015 184.643 212.068 184.553 212.139C184.463 212.21 184.421 212.322 184.428 212.475L184.526 214.683L186.831 212.058C186.654 211.972 186.435 211.929 186.175 211.927C186.156 211.808 186.166 211.714 186.203 211.646L188.181 211.558C188.186 211.684 188.18 211.778 188.163 211.839C187.77 211.856 187.453 212 187.211 212.271L185.266 214.44C185.467 214.464 185.649 214.58 185.811 214.786L187.434 216.836C187.604 217.049 187.757 217.189 187.893 217.256C188.036 217.323 188.225 217.358 188.458 217.361C188.463 217.474 188.451 217.575 188.422 217.663L187.223 217.716L185.136 215.126C185.051 215.017 184.945 214.955 184.817 214.94L184.55 215.242L184.646 217.39C184.843 217.468 185.068 217.508 185.322 217.51C185.332 217.59 185.326 217.687 185.305 217.801L183.287 217.891C183.269 217.785 183.274 217.688 183.304 217.6C183.542 217.556 183.703 217.502 183.787 217.438C183.877 217.368 183.919 217.252 183.912 217.092Z" fill="black"/>
<path d="M137.13 356.701L138.21 356.729C138.69 356.741 139.046 356.63 139.279 356.396C139.518 356.162 139.643 355.851 139.652 355.465C139.662 355.078 139.554 354.762 139.326 354.516C139.106 354.264 138.756 354.132 138.276 354.12L137.196 354.092L137.13 356.701ZM139.456 352.579C139.465 352.199 139.36 351.893 139.139 351.661C138.925 351.428 138.581 351.306 138.108 351.294L137.268 351.273L137.205 353.742L138.515 353.786C139.126 353.601 139.44 353.199 139.456 352.579ZM138.116 350.965C138.869 350.984 139.412 351.147 139.744 351.456C140.083 351.758 140.247 352.139 140.235 352.599C140.227 352.919 140.134 353.193 139.954 353.422C139.775 353.644 139.541 353.808 139.252 353.914C139.636 354.011 139.931 354.205 140.137 354.497C140.35 354.789 140.452 355.118 140.442 355.485C140.43 355.951 140.237 356.34 139.863 356.651C139.488 356.955 138.941 357.097 138.221 357.079L135.752 357.017C135.755 356.877 135.768 356.78 135.789 356.727C136.023 356.7 136.188 356.658 136.283 356.6C136.378 356.536 136.427 356.424 136.431 356.264L136.556 351.345C136.371 351.26 136.146 351.208 135.88 351.188C135.883 351.061 135.895 350.968 135.917 350.909L138.116 350.965ZM142.797 353.994L143.607 354.015C144.513 354.038 144.977 353.623 144.999 352.769C145.021 351.91 144.578 351.468 143.672 351.445L142.862 351.425L142.797 353.994ZM146.542 357C146.54 357.093 146.527 357.19 146.505 357.289L145.345 357.26L144.215 354.88C144.126 354.698 144.03 354.569 143.925 354.493C143.827 354.41 143.665 354.366 143.438 354.36L142.788 354.344L142.729 356.703C142.999 356.823 143.267 356.897 143.533 356.924C143.537 357.024 143.528 357.12 143.506 357.213L141.337 357.158C141.326 357.051 141.338 356.955 141.374 356.869C141.615 356.842 141.779 356.799 141.867 356.741C141.962 356.677 142.012 356.565 142.016 356.405L142.14 351.507C141.923 351.401 141.694 351.342 141.454 351.329C141.457 351.203 141.47 351.11 141.491 351.05L143.851 351.11C144.497 351.126 144.983 351.289 145.309 351.597C145.641 351.899 145.802 352.27 145.791 352.71C145.769 353.583 145.345 354.112 144.52 354.298C144.691 354.389 144.85 354.58 144.996 354.87L145.766 356.43C145.874 356.646 145.981 356.796 146.085 356.878C146.197 356.954 146.349 356.995 146.542 357ZM152.868 351.26C152.875 351.286 152.877 351.323 152.877 351.37C152.876 351.416 152.866 351.473 152.845 351.539C152.604 351.563 152.437 351.608 152.343 351.673C152.256 351.732 152.211 351.841 152.209 352.001L152.168 355.291C152.159 356.038 151.948 356.589 151.537 356.943C151.133 357.292 150.594 357.462 149.921 357.453C149.248 357.445 148.71 357.262 148.308 356.903C147.912 356.538 147.719 355.982 147.728 355.236L147.773 351.636C147.568 351.547 147.338 351.491 147.085 351.468C147.079 351.441 147.076 351.404 147.077 351.357C147.077 351.311 147.091 351.254 147.119 351.188L149.138 351.213C149.137 351.346 149.129 351.44 149.115 351.493C148.881 351.517 148.717 351.561 148.623 351.627C148.529 351.692 148.481 351.802 148.479 351.955L148.437 355.315C148.43 355.888 148.562 356.316 148.831 356.6C149.101 356.883 149.466 357.028 149.926 357.033C150.386 357.039 150.751 356.904 151.021 356.627C151.291 356.344 151.43 355.919 151.437 355.352L151.483 351.672C151.297 351.597 151.071 351.544 150.805 351.514C150.807 351.381 150.821 351.287 150.848 351.234L152.868 351.26ZM159.195 354.371C159.201 354.404 159.204 354.447 159.204 354.501C159.204 354.554 159.19 354.611 159.163 354.671C158.93 354.709 158.766 354.759 158.673 354.818C158.579 354.878 158.532 354.988 158.531 355.148L158.521 357.398L158.151 357.396L157.963 357.035C157.481 357.353 156.964 357.511 156.41 357.508C155.664 357.505 155.028 357.225 154.504 356.67C153.98 356.107 153.72 355.35 153.724 354.396C153.729 353.436 154.039 352.654 154.655 352.05C155.271 351.446 156.016 351.146 156.889 351.15C157.469 351.153 158.018 351.255 158.538 351.458C158.522 351.871 158.467 352.287 158.372 352.707C158.265 352.706 158.192 352.703 158.152 352.696C158.134 352.349 158.008 352.082 157.776 351.894C157.543 351.707 157.25 351.612 156.897 351.61C156.157 351.607 155.579 351.851 155.164 352.343C154.748 352.834 154.538 353.506 154.535 354.36C154.531 355.206 154.714 355.861 155.086 356.322C155.464 356.784 155.953 357.016 156.553 357.019C157.013 357.021 157.446 356.91 157.854 356.685L157.862 354.825C157.65 354.737 157.41 354.683 157.143 354.661C157.144 354.541 157.154 354.442 157.175 354.362L159.195 354.371ZM165.381 354.34C165.388 354.373 165.391 354.416 165.392 354.47C165.392 354.523 165.379 354.58 165.352 354.64C165.119 354.681 164.956 354.732 164.863 354.793C164.77 354.853 164.724 354.963 164.725 355.123L164.737 357.373L164.367 357.375L164.175 357.016C163.697 357.339 163.181 357.501 162.627 357.504C161.881 357.508 161.243 357.235 160.713 356.684C160.184 356.127 159.916 355.372 159.911 354.419C159.906 353.459 160.209 352.674 160.819 352.064C161.429 351.454 162.171 351.147 163.044 351.142C163.624 351.139 164.174 351.236 164.695 351.433C164.684 351.847 164.633 352.264 164.542 352.684C164.435 352.685 164.362 352.682 164.322 352.675C164.3 352.329 164.172 352.063 163.938 351.877C163.704 351.692 163.41 351.6 163.056 351.602C162.316 351.606 161.741 351.856 161.33 352.351C160.92 352.847 160.716 353.521 160.721 354.374C160.725 355.221 160.916 355.873 161.291 356.331C161.674 356.789 162.165 357.017 162.765 357.014C163.225 357.011 163.658 356.896 164.063 356.667L164.053 354.807C163.839 354.721 163.599 354.669 163.332 354.651C163.332 354.531 163.341 354.431 163.361 354.35L165.381 354.34ZM167.525 357.567C167.534 358.074 167.319 358.631 166.883 359.238L166.5 359.064C166.5 359.057 166.522 359.017 166.568 358.943C166.613 358.876 166.639 358.835 166.646 358.822C166.652 358.808 166.675 358.768 166.714 358.701C166.753 358.633 166.775 358.586 166.781 358.559C166.794 358.539 166.814 358.499 166.839 358.438C166.872 358.378 166.894 358.331 166.907 358.297C166.964 358.13 166.992 357.966 166.989 357.806C166.983 357.426 166.778 357.139 166.375 356.946L166.374 356.906L166.666 356.391C166.968 356.506 167.184 356.673 167.314 356.89C167.451 357.102 167.521 357.327 167.525 357.567ZM176.143 356.47C175.606 357.04 174.944 357.331 174.158 357.345C173.371 357.359 172.697 357.087 172.134 356.53C171.57 355.973 171.281 355.221 171.264 354.275C171.248 353.328 171.538 352.546 172.134 351.929C172.73 351.312 173.468 350.996 174.348 350.981C174.968 350.97 175.489 351.061 175.913 351.254C175.907 351.68 175.861 352.101 175.775 352.516C175.648 352.518 175.575 352.516 175.554 352.51C175.542 352.17 175.424 351.906 175.201 351.716C174.977 351.527 174.692 351.435 174.346 351.441C173.646 351.453 173.087 351.709 172.669 352.21C172.257 352.711 172.059 353.374 172.073 354.201C172.087 355.027 172.309 355.673 172.737 356.139C173.172 356.599 173.692 356.823 174.299 356.812C174.912 356.802 175.469 356.629 175.97 356.293L176.143 356.47ZM182.622 356.672L182.623 356.962L180.584 357.036C180.579 356.896 180.582 356.8 180.594 356.746C180.832 356.704 180.994 356.651 181.078 356.588C181.169 356.518 181.211 356.403 181.206 356.243L181.129 354.145L178.191 354.252L178.28 356.68C178.476 356.76 178.701 356.802 178.955 356.806C178.964 356.885 178.958 356.982 178.935 357.097L176.917 357.17C176.899 357.064 176.906 356.967 176.936 356.879C177.175 356.837 177.336 356.785 177.421 356.722C177.511 356.652 177.554 356.537 177.548 356.377L177.369 351.48C177.159 351.401 176.928 351.356 176.674 351.345C176.669 351.219 176.676 351.125 176.693 351.064L178.722 350.99C178.727 351.124 178.72 351.217 178.702 351.271C178.477 351.306 178.319 351.359 178.228 351.429C178.137 351.499 178.094 351.61 178.1 351.764L178.177 353.872L181.115 353.765L181.026 351.336C180.837 351.27 180.609 351.228 180.341 351.211C180.336 351.078 180.346 350.984 180.371 350.93L182.39 350.856C182.406 350.942 182.403 351.036 182.38 351.137C182.141 351.172 181.976 351.225 181.885 351.295C181.801 351.358 181.762 351.47 181.768 351.63L181.947 356.546C182.137 356.626 182.362 356.668 182.622 356.672Z" fill="black"/>
<path d="M132.569 239.186C132.577 239.237 132.579 239.312 132.576 239.412C132.572 239.502 132.543 239.626 132.487 239.784C132.135 239.831 131.883 239.903 131.729 239.997C131.576 240.092 131.495 240.264 131.486 240.514L131.369 243.797L130.62 243.77L130.322 243.264C129.586 243.698 128.814 243.901 128.004 243.872C126.815 243.83 125.821 243.364 125.022 242.475C124.223 241.586 123.85 240.412 123.901 238.953C123.953 237.494 124.475 236.322 125.467 235.437C126.47 234.542 127.646 234.118 128.995 234.166C129.944 234.2 130.858 234.393 131.736 234.744C131.704 235.353 131.589 236.06 131.39 236.863C131.181 236.856 131.026 236.845 130.926 236.832C130.886 236.28 130.686 235.847 130.327 235.534C129.968 235.222 129.514 235.055 128.964 235.036C127.935 234.999 127.112 235.325 126.498 236.014C125.893 236.703 125.568 237.682 125.523 238.951C125.477 240.22 125.708 241.204 126.213 241.902C126.729 242.591 127.432 242.951 128.321 242.983C128.931 243.005 129.526 242.876 130.106 242.596L130.201 239.913C129.846 239.78 129.469 239.697 129.07 239.662C129.078 239.423 129.1 239.223 129.136 239.064L132.569 239.186ZM135.695 243.291L138.288 243.371C138.758 243.386 139.077 243.275 139.244 243.04C139.412 242.796 139.529 242.384 139.597 241.806C139.787 241.812 139.962 241.827 140.121 241.852C140.155 242.383 140.166 242.829 140.155 243.189C140.144 243.548 140.13 243.843 140.113 244.073L133.216 243.86C133.207 243.81 133.205 243.734 133.208 243.635C133.211 243.535 133.239 243.425 133.293 243.307C133.634 243.268 133.876 243.2 134.019 243.104C134.173 243.009 134.253 242.831 134.261 242.572L134.485 235.315C134.209 235.186 133.866 235.106 133.457 235.073C133.458 235.043 133.46 234.988 133.462 234.908C133.465 234.818 133.484 234.694 133.519 234.535L136.952 234.641C136.96 234.691 136.963 234.766 136.96 234.866C136.957 234.966 136.929 235.07 136.875 235.179C136.544 235.208 136.302 235.276 136.149 235.381C136.006 235.477 135.93 235.655 135.922 235.915L135.695 243.291ZM147.571 232.495C147.568 232.695 147.49 232.869 147.338 233.017C147.196 233.164 147.025 233.237 146.825 233.234C146.635 233.231 146.466 233.153 146.318 233.001C146.18 232.849 146.113 232.673 146.116 232.473C146.119 232.263 146.192 232.084 146.334 231.936C146.477 231.788 146.648 231.716 146.848 231.719C147.048 231.722 147.217 231.8 147.354 231.952C147.502 232.104 147.574 232.285 147.571 232.495ZM145.381 232.462C145.378 232.662 145.3 232.835 145.148 232.983C145.006 233.131 144.835 233.203 144.635 233.2C144.445 233.197 144.276 233.12 144.128 232.967C143.991 232.815 143.923 232.639 143.926 232.439C143.93 232.229 144.002 232.05 144.145 231.903C144.287 231.755 144.458 231.682 144.658 231.685C144.858 231.688 145.027 231.766 145.165 231.918C145.312 232.07 145.384 232.252 145.381 232.462ZM150.515 234.19C150.515 234.24 150.513 234.315 150.512 234.415C150.51 234.515 150.489 234.62 150.447 234.729C150.107 234.764 149.86 234.835 149.709 234.943C149.567 235.041 149.494 235.22 149.49 235.48L149.415 240.429C149.397 241.549 149.065 242.369 148.417 242.889C147.769 243.409 146.9 243.661 145.81 243.644C144.72 243.628 143.854 243.349 143.212 242.81C142.581 242.27 142.273 241.44 142.29 240.32L142.375 234.816C142.087 234.691 141.743 234.616 141.343 234.59C141.344 234.56 141.344 234.505 141.346 234.425C141.347 234.335 141.364 234.21 141.396 234.051L144.831 234.103C144.84 234.163 144.844 234.244 144.842 234.344C144.841 234.434 144.819 234.533 144.778 234.643C144.437 234.677 144.191 234.749 144.039 234.856C143.898 234.954 143.825 235.133 143.821 235.393L143.744 240.402C143.732 241.232 143.907 241.85 144.271 242.256C144.645 242.651 145.157 242.854 145.807 242.864C146.467 242.874 146.985 242.687 147.361 242.303C147.737 241.909 147.931 241.297 147.944 240.467L148.029 234.902C147.751 234.778 147.412 234.703 147.012 234.677C147.013 234.647 147.014 234.592 147.015 234.512C147.016 234.422 147.033 234.297 147.066 234.138L150.515 234.19ZM159.612 236.237L159.601 243.497C159.881 243.617 160.226 243.688 160.636 243.708C160.636 243.918 160.62 244.103 160.59 244.263L157.14 244.258C157.141 243.998 157.156 243.813 157.186 243.703C157.536 243.654 157.781 243.579 157.921 243.479C158.061 243.379 158.132 243.2 158.132 242.94L158.137 239.97L153.997 239.963L153.991 243.488C154.281 243.609 154.621 243.679 155.011 243.7C155.011 243.73 155.011 243.785 155.011 243.865C155.011 243.945 154.995 244.075 154.965 244.255L151.53 244.249C151.53 244.199 151.53 244.124 151.53 244.024C151.531 243.924 151.551 243.814 151.591 243.694C151.931 243.645 152.171 243.57 152.311 243.471C152.461 243.371 152.537 243.191 152.537 242.931L152.548 235.671C152.268 235.551 151.919 235.48 151.499 235.459C151.499 235.219 151.519 235.039 151.559 234.919L154.994 234.925C154.994 235.185 154.979 235.365 154.949 235.465C154.609 235.504 154.363 235.579 154.213 235.688C154.073 235.788 154.003 235.968 154.002 236.228L153.998 239.213L158.138 239.22L158.143 235.68C157.853 235.559 157.514 235.489 157.124 235.468C157.124 235.438 157.124 235.383 157.124 235.303C157.124 235.213 157.139 235.088 157.169 234.928L160.619 234.933C160.629 234.983 160.634 235.058 160.634 235.158C160.634 235.258 160.609 235.363 160.559 235.473C160.219 235.513 159.973 235.587 159.823 235.697C159.683 235.797 159.613 235.977 159.612 236.237ZM174.458 234.694C174.458 234.734 174.459 234.794 174.461 234.874C174.462 234.954 174.454 235.074 174.437 235.235C174.148 235.3 173.935 235.389 173.797 235.501C173.669 235.614 173.562 235.811 173.478 236.092L171.027 244.177L170.487 244.187L167.922 237.527L165.343 244.279L164.788 244.289L161.888 235.639C161.596 235.534 161.32 235.479 161.059 235.474C161.037 235.314 161.024 235.195 161.023 235.115C161.022 235.035 161.021 234.975 161.02 234.935L164.529 234.872C164.582 235.031 164.61 235.21 164.614 235.41C164.165 235.458 163.891 235.528 163.793 235.62C163.694 235.712 163.646 235.813 163.648 235.923C163.65 236.023 163.672 236.132 163.714 236.252L165.3 241.084C165.407 241.422 165.477 241.741 165.513 242.04L165.558 242.04L168.107 235.273L168.647 235.263L170.836 241.06C170.951 241.368 171.027 241.677 171.063 241.986L171.093 241.986L172.942 235.487C172.609 235.362 172.323 235.293 172.083 235.277C172.099 235.077 172.126 234.896 172.163 234.735L174.458 234.694ZM177.725 243.299L180.154 243.238C180.644 243.225 180.966 243.092 181.119 242.838C181.273 242.574 181.372 242.136 181.416 241.525C181.496 241.513 181.591 241.506 181.701 241.503C181.811 241.5 181.926 241.512 182.047 241.539C182.1 242.048 182.131 242.497 182.141 242.887C182.151 243.267 182.154 243.582 182.15 243.832L175.282 244.007C175.281 243.957 175.279 243.882 175.277 243.782C175.274 243.682 175.291 243.571 175.328 243.45C175.667 243.392 175.905 243.311 176.042 243.207C176.19 243.103 176.26 242.922 176.253 242.662L176.069 235.404C175.786 235.291 175.434 235.23 175.014 235.221C175.008 234.981 175.023 234.8 175.06 234.679L181.718 234.51C181.733 234.73 181.746 235.034 181.756 235.424C181.766 235.804 181.747 236.24 181.699 236.731C181.63 236.753 181.435 236.768 181.115 236.776C181.05 236.188 180.935 235.77 180.768 235.524C180.612 235.278 180.294 235.161 179.814 235.174L177.52 235.232L177.613 238.891L179.934 238.697L180.444 238.684L180.466 239.583L179.957 239.596L177.63 239.566L177.725 243.299ZM185.488 235.665L185.805 242.918C186.1 243.026 186.443 243.081 186.834 243.084C186.835 243.114 186.837 243.168 186.841 243.248C186.844 243.328 186.835 243.459 186.813 243.64L183.381 243.79C183.379 243.74 183.376 243.665 183.371 243.566C183.367 243.466 183.382 243.355 183.417 243.233C183.754 243.168 183.991 243.083 184.126 242.977C184.272 242.87 184.339 242.687 184.328 242.428L184.01 235.175C183.725 235.067 183.372 235.012 182.951 235.011C182.941 234.771 182.953 234.59 182.988 234.469L186.419 234.318C186.431 234.578 186.424 234.758 186.398 234.86C186.06 234.915 185.819 235 185.674 235.117C185.538 235.223 185.476 235.406 185.488 235.665ZM196.839 233.857C196.852 233.916 196.86 233.996 196.865 234.096C196.869 234.186 196.853 234.287 196.818 234.398C196.142 234.508 195.815 234.803 195.836 235.283L196.188 243.225L195.559 243.253L190.458 236.902L189.58 235.725L189.891 242.738C190.156 242.846 190.528 242.9 191.009 242.899C191.01 242.929 191.013 242.984 191.016 243.064C191.02 243.144 191.01 243.274 190.988 243.455L188.021 243.587C188.009 243.527 188 243.452 187.996 243.363C187.992 243.263 188.007 243.152 188.042 243.03C188.707 242.911 189.03 242.621 189.009 242.162L188.689 234.924C188.394 234.827 188.042 234.787 187.632 234.805C187.641 234.545 187.658 234.364 187.683 234.263L190.081 234.156L194.069 239.115L195.22 240.685L194.954 234.691C194.689 234.583 194.317 234.529 193.836 234.53C193.835 234.5 193.832 234.445 193.829 234.366C193.825 234.276 193.834 234.15 193.857 233.989L196.839 233.857Z" fill="black"/>
</svg>
